<svg width="401" height="326" viewBox="0 0 401 326" fill="none" xmlns="http://www.w3.org/2000/svg">
<path d="M317.711 0H0.5V103.847L193.528 172.64L317.711 171.325C363.463 170.011 400.5 132.328 400.5 85.8817C400.5 39.4355 363.463 1.75269 317.711 0ZM307.69 104.285C294.182 104.285 283.289 93.3307 283.289 79.7473C283.289 66.164 294.182 55.2097 307.69 55.2097C321.197 55.2097 332.09 66.164 332.09 79.7473C332.526 92.8925 321.633 104.285 307.69 104.285Z" fill="#CAD1F3"/>
<path d="M188.299 171.763L392.221 257.645V326H256.273V315.484C256.273 280.43 227.951 251.949 193.093 251.949H190.914V326H0.5V171.763H188.299Z" fill="#CAD1F3"/>
</svg>
