<svg width="278" height="292" viewBox="0 0 278 292" fill="none" xmlns="http://www.w3.org/2000/svg">
<g filter="url(#filter0_n_932_1503)">
<rect x="1" y="1" width="276" height="290" rx="100" fill="url(#paint0_radial_932_1503)"/>
<rect x="1" y="1" width="276" height="290" rx="100" fill="url(#paint1_radial_932_1503)"/>
<rect x="1" y="1" width="276" height="290" rx="100" stroke="url(#paint2_linear_932_1503)" stroke-width="1.67742"/>
</g>
<g filter="url(#filter1_i_932_1503)">
<path fill-rule="evenodd" clip-rule="evenodd" d="M105.552 54C110.172 54 113.917 57.745 113.917 62.3647L113.917 70.7294L130.646 70.7294L130.646 62.3647C130.646 57.745 134.391 54 139.011 54C143.631 54 147.376 57.745 147.376 62.3647L147.376 70.7294L164.105 70.7294L164.105 62.3647C164.105 57.745 167.849 54 172.469 54C177.089 54 180.834 57.745 180.834 62.3647L180.834 70.7294L189.199 70.7294C203.058 70.7294 214.293 81.9645 214.293 95.8236L214.293 104.188L222.659 104.188C227.279 104.188 231.024 107.933 231.024 112.553C231.024 117.173 227.279 120.918 222.659 120.918L214.293 120.918L214.293 137.647L222.657 137.647C227.277 137.647 231.022 141.392 231.022 146.012C231.022 150.632 227.277 154.377 222.657 154.377L214.293 154.377L214.293 171.106L222.659 171.106C227.279 171.106 231.024 174.851 231.024 179.471C231.024 184.091 227.279 187.836 222.659 187.836L214.293 187.836L214.293 196.2C214.293 210.06 203.058 221.294 189.199 221.294L180.834 221.294L180.834 229.659C180.834 234.279 177.089 238.024 172.469 238.024C167.849 238.024 164.105 234.279 164.105 229.659L164.105 221.294L147.376 221.294L147.376 229.659C147.376 234.279 143.631 238.024 139.011 238.024C134.391 238.024 130.646 234.279 130.646 229.659L130.646 221.294L113.917 221.294L113.917 229.659C113.917 234.279 110.172 238.024 105.552 238.024C100.933 238.024 97.1878 234.279 97.1878 229.659L97.1878 221.294L88.8231 221.294C74.9641 221.294 63.7292 210.06 63.7292 196.2L63.7292 187.835L55.3646 187.835C50.7449 187.835 47 184.091 47 179.471C47 174.851 50.7449 171.106 55.3646 171.106L63.7293 171.106L63.7293 154.377L55.3667 154.377C50.747 154.377 47.0021 150.632 47.0021 146.012C47.0021 141.392 50.747 137.647 55.3667 137.647L63.7293 137.647L63.7293 120.918L55.3646 120.918C50.7449 120.918 47 117.173 47 112.553C47 107.933 50.7449 104.188 55.3646 104.188L63.7293 104.188L63.7293 95.8236C63.7293 81.9645 74.9642 70.7294 88.8231 70.7294L97.1878 70.7294L97.1878 62.3647C97.1878 57.745 100.933 54 105.552 54ZM80.4585 196.2C80.4585 200.82 84.2034 204.565 88.8231 204.565L189.199 204.565C193.819 204.565 197.563 200.82 197.563 196.2L197.563 95.8236C197.563 91.2039 193.819 87.4589 189.199 87.4589L88.8231 87.4589C84.2035 87.4589 80.4585 91.2039 80.4585 95.8236L80.4585 196.2ZM111.187 171.106L97.1878 171.106L115.371 120.918L132.712 120.918L150.895 171.106L136.896 171.106L133.343 160.569L114.732 160.569L111.187 171.106ZM124.239 133.563L130.237 151.354L117.832 151.354L123.818 133.563L124.239 133.563ZM159.444 120.918L172.469 120.918L172.469 171.106L159.444 171.106L159.444 120.918Z" fill="white"/>
</g>
<path d="M172.47 54.4463C176.843 54.4465 180.387 57.9915 180.388 62.3643L180.388 71.1758L189.198 71.1758C202.811 71.1758 213.846 82.2109 213.846 95.8232L213.846 104.635L222.659 104.635C227.032 104.635 230.577 108.18 230.577 112.553C230.577 116.926 227.032 120.471 222.659 120.471L213.846 120.471L213.846 138.094L222.657 138.094C227.03 138.094 230.575 141.638 230.575 146.012C230.575 150.385 227.03 153.93 222.657 153.93L213.846 153.93L213.846 171.553L222.659 171.553C227.032 171.553 230.577 175.097 230.577 179.471C230.577 183.844 227.032 187.389 222.659 187.389L213.846 187.389L213.846 196.2C213.846 209.813 202.811 220.848 189.198 220.848L180.388 220.848L180.388 229.659C180.388 234.032 176.843 237.577 172.47 237.577C168.096 237.577 164.552 234.033 164.552 229.659L164.552 220.848L146.929 220.848L146.929 229.659C146.929 234.033 143.384 237.577 139.011 237.577C134.638 237.577 131.093 234.032 131.093 229.659L131.093 220.848L113.471 220.848L113.471 229.659C113.471 234.032 109.926 237.577 105.553 237.577C101.18 237.577 97.6348 234.032 97.6348 229.659L97.6348 220.848L88.8232 220.848C75.2109 220.848 64.1758 209.813 64.1758 196.2L64.1758 187.389L55.3643 187.389C50.9914 187.388 47.4463 183.844 47.4463 179.471C47.4463 175.098 50.9914 171.553 55.3643 171.553L64.1758 171.553L64.1758 153.93L55.3672 153.93C50.9942 153.93 47.4482 150.385 47.4482 146.012C47.4483 141.638 50.9942 138.094 55.3672 138.094L64.1758 138.094L64.1758 120.471L55.3643 120.471C50.9914 120.471 47.4463 116.926 47.4463 112.553C47.4464 108.18 50.9915 104.635 55.3643 104.635L64.1758 104.635L64.1758 95.8232C64.176 82.2109 75.211 71.1758 88.8232 71.1758L97.6348 71.1758L97.6348 62.3643C97.635 57.9914 101.18 54.4463 105.553 54.4463C109.926 54.4465 113.47 57.9915 113.471 62.3643L113.471 71.1758L131.093 71.1758L131.093 62.3643C131.093 57.9914 134.638 54.4464 139.011 54.4463C143.384 54.4463 146.928 57.9914 146.929 62.3643L146.929 71.1758L164.552 71.1758L164.552 62.3643C164.552 57.9914 168.097 54.4463 172.47 54.4463ZM88.8232 87.0127C83.957 87.0127 80.0119 90.957 80.0117 95.8232L80.0117 196.2C80.0117 201.067 83.9569 205.012 88.8232 205.012L189.198 205.012C194.065 205.012 198.01 201.067 198.01 196.2L198.01 95.8232C198.01 90.957 194.065 87.0127 189.198 87.0127L88.8232 87.0127ZM172.022 121.364L172.022 170.659L159.891 170.659L159.891 121.364L172.022 121.364ZM132.398 121.364L150.259 170.659L137.217 170.659L133.767 160.426L133.664 160.122L114.411 160.122L114.309 160.426L110.866 170.659L97.8242 170.659L115.685 121.364L132.398 121.364ZM123.395 133.42L117.409 151.212L117.211 151.801L130.858 151.801L130.66 151.211L124.662 133.42L124.56 133.116L123.497 133.116L123.395 133.42Z" stroke="#E5E5E5" stroke-width="0.893219"/>
<defs>
<filter id="filter0_n_932_1503" x="0.162109" y="0.161133" width="277.676" height="291.678" filterUnits="userSpaceOnUse" color-interpolation-filters="sRGB">
<feFlood flood-opacity="0" result="BackgroundImageFix"/>
<feBlend mode="normal" in="SourceGraphic" in2="BackgroundImageFix" result="shape"/>
<feTurbulence type="fractalNoise" baseFrequency="1 1" stitchTiles="stitch" numOctaves="3" result="noise" seed="3870" />
<feColorMatrix in="noise" type="luminanceToAlpha" result="alphaNoise" />
<feComponentTransfer in="alphaNoise" result="coloredNoise1">
<feFuncA type="discrete" tableValues="1 1 1 1 1 1 1 1 1 1 1 1 1 1 1 1 1 1 1 1 1 1 1 1 1 1 1 1 1 1 1 1 1 1 1 1 1 1 1 1 1 1 1 1 1 1 1 1 1 1 1 0 0 0 0 0 0 0 0 0 0 0 0 0 0 0 0 0 0 0 0 0 0 0 0 0 0 0 0 0 0 0 0 0 0 0 0 0 0 0 0 0 0 0 0 0 0 0 0 0 "/>
</feComponentTransfer>
<feComposite operator="in" in2="shape" in="coloredNoise1" result="noise1Clipped" />
<feFlood flood-color="rgba(255, 255, 255, 0.25)" result="color1Flood" />
<feComposite operator="in" in2="noise1Clipped" in="color1Flood" result="color1" />
<feMerge result="effect1_noise_932_1503">
<feMergeNode in="shape" />
<feMergeNode in="color1" />
</feMerge>
</filter>
<filter id="filter1_i_932_1503" x="47" y="54" width="184.023" height="187.596" filterUnits="userSpaceOnUse" color-interpolation-filters="sRGB">
<feFlood flood-opacity="0" result="BackgroundImageFix"/>
<feBlend mode="normal" in="SourceGraphic" in2="BackgroundImageFix" result="shape"/>
<feColorMatrix in="SourceAlpha" type="matrix" values="0 0 0 0 0 0 0 0 0 0 0 0 0 0 0 0 0 0 127 0" result="hardAlpha"/>
<feOffset dy="3.57288"/>
<feGaussianBlur stdDeviation="1.78644"/>
<feComposite in2="hardAlpha" operator="arithmetic" k2="-1" k3="1"/>
<feColorMatrix type="matrix" values="0 0 0 0 0 0 0 0 0 0 0 0 0 0 0 0 0 0 0.25 0"/>
<feBlend mode="normal" in2="shape" result="effect1_innerShadow_932_1503"/>
</filter>
<radialGradient id="paint0_radial_932_1503" cx="0" cy="0" r="1" gradientUnits="userSpaceOnUse" gradientTransform="translate(176 89) rotate(61.0699) scale(178.814 170.182)">
<stop stop-color="#EFA1FF"/>
<stop offset="1" stop-color="white" stop-opacity="0"/>
</radialGradient>
<radialGradient id="paint1_radial_932_1503" cx="0" cy="0" r="1" gradientUnits="userSpaceOnUse" gradientTransform="translate(37.5 226) rotate(12.557) scale(220.781 210.123)">
<stop stop-color="#96C3FF"/>
<stop offset="1" stop-color="white" stop-opacity="0"/>
</radialGradient>
<linearGradient id="paint2_linear_932_1503" x1="257.978" y1="0.999999" x2="-4.31122" y2="267.007" gradientUnits="userSpaceOnUse">
<stop offset="0.55" stop-color="#CAD1F3" stop-opacity="0.15"/>
<stop offset="0.774038" stop-color="#334FD7" stop-opacity="0.6"/>
<stop offset="1" stop-color="#334FD7" stop-opacity="0.4"/>
</linearGradient>
</defs>
</svg>
