<svg width="18" height="18" viewBox="0 0 18 18" fill="none" xmlns="http://www.w3.org/2000/svg">
<path d="M0.875417 4.02998C0.875417 2.99081 1.20875 2.16831 1.78292 1.61498C2.35208 1.06581 3.10292 0.837478 3.82875 0.879978C5.12125 0.954978 6.38958 1.88998 6.65708 3.46914H6.96542L7.03042 3.47248C7.18419 3.48842 7.3266 3.5608 7.43013 3.67561C7.53365 3.79043 7.59095 3.93954 7.59095 4.09414C7.59095 4.24874 7.53365 4.39786 7.43013 4.51268C7.3266 4.62749 7.18419 4.69987 7.03042 4.71581L6.96625 4.71914H5.20042C5.03466 4.71914 4.87569 4.6533 4.75848 4.53609C4.64127 4.41888 4.57542 4.2599 4.57542 4.09414C4.57542 3.92838 4.64127 3.76941 4.75848 3.6522C4.87569 3.53499 5.03466 3.46914 5.20042 3.46914H5.37625C5.28269 3.10284 5.07539 2.77564 4.78415 2.53456C4.49292 2.29349 4.13275 2.15097 3.75542 2.12748C3.33542 2.10248 2.93875 2.23581 2.64958 2.51498C2.36458 2.78998 2.12458 3.26331 2.12458 4.02998V8.39331H16.5004L16.5646 8.39581C16.7192 8.4108 16.8627 8.48281 16.967 8.59782C17.0714 8.71282 17.1293 8.86257 17.1293 9.01789C17.1293 9.17321 17.0714 9.32297 16.967 9.43797C16.8627 9.55298 16.7192 9.62499 16.5646 9.63998L16.5004 9.64164H16.2421C16.2379 10.5266 16.2046 11.5333 15.9454 12.4308C15.6562 13.4308 15.0763 14.3375 13.9746 14.8516L14.4479 16.3058C14.4992 16.4635 14.4857 16.6351 14.4105 16.7829C14.3352 16.9306 14.2044 17.0425 14.0467 17.0937C13.889 17.145 13.7174 17.1315 13.5696 17.0563C13.4218 16.981 13.31 16.8502 13.2588 16.6925L12.7838 15.2325C10.2638 15.8216 6.81125 15.7933 4.33542 15.2283L3.86042 16.6925C3.80914 16.8502 3.69732 16.981 3.54956 17.0563C3.4018 17.1315 3.23019 17.145 3.0725 17.0937C2.91481 17.0425 2.78394 16.9306 2.70869 16.7829C2.63344 16.6351 2.61998 16.4635 2.67125 16.3058L3.14375 14.8516C2.04208 14.3366 1.46208 13.4308 1.17292 12.4308C0.872084 11.3866 0.872917 10.195 0.875417 9.21998V4.02998Z" fill="white"/>
</svg>
