<svg width="18" height="12" viewBox="0 0 18 12" fill="none" xmlns="http://www.w3.org/2000/svg">
<path d="M16.4993 4.98366V2.66699C16.4993 1.29199 15.3743 0.166992 13.9993 0.166992H10.666C10.0243 0.166992 9.44102 0.416992 8.99935 0.816992C8.55768 0.416992 7.97435 0.166992 7.33268 0.166992H3.99935C2.62435 0.166992 1.49935 1.29199 1.49935 2.66699V4.98366C0.991016 5.44199 0.666016 6.10033 0.666016 6.83366V11.8337H2.33268V10.167H15.666V11.8337H17.3327V6.83366C17.3327 6.10033 17.0077 5.44199 16.4993 4.98366ZM10.666 1.83366H13.9993C14.4577 1.83366 14.8327 2.20866 14.8327 2.66699V4.33366H9.83268V2.66699C9.83268 2.20866 10.2077 1.83366 10.666 1.83366ZM3.16602 2.66699C3.16602 2.20866 3.54102 1.83366 3.99935 1.83366H7.33268C7.79102 1.83366 8.16602 2.20866 8.16602 2.66699V4.33366H3.16602V2.66699Z" fill="white"/>
</svg>
