<svg width="42" height="56" viewBox="0 0 42 56" fill="none" xmlns="http://www.w3.org/2000/svg">
<path d="M6.73451 55.5245C5.1654 55.5245 3.82128 55.0014 2.70214 53.9551C1.58301 52.9069 1.02344 51.6111 1.02344 50.0678V11.3314C1.02344 9.82673 1.53301 8.50776 2.55216 7.37446C3.57131 6.24115 4.82697 5.51785 6.31916 5.20454L29.1199 0.362231C30.4199 0.0861443 31.644 1.07759 31.644 2.40658V40.5428C31.644 41.5257 30.9592 42.3757 29.9989 42.5849L6.08841 47.7935C5.50768 47.9269 4.99907 48.1938 4.56257 48.5941C4.12607 48.9925 3.90782 49.4838 3.90782 50.0678C3.90782 50.8221 4.18856 51.4371 4.75005 51.9128C5.31155 52.3886 5.97399 52.6255 6.73739 52.6236H36.4304C37.5847 52.6236 38.5204 51.6879 38.5204 50.5336V10.5514C38.5204 9.75492 39.166 9.10923 39.9625 9.10923C40.759 9.10923 41.4047 9.75492 41.4047 10.5514V53.4346C41.4047 54.5888 40.469 55.5245 39.3148 55.5245H6.73451ZM10.7871 41.2728C10.7871 42.6077 12.0214 43.6004 13.3252 43.3141L27.115 40.2865C28.0737 40.076 28.7567 39.2267 28.7567 38.2452V6.00268C28.7567 4.6731 27.5316 3.68153 26.2312 3.95863L12.4414 6.89718C11.4767 7.10276 10.7871 7.95485 10.7871 8.94123V41.2728ZM6.26618 44.8356C7.22237 44.6231 7.90268 43.775 7.90268 42.7954V9.135C7.90268 8.47826 7.29505 7.9901 6.65374 8.13161C5.86535 8.3018 5.21155 8.67989 4.69237 9.26588C4.16933 9.84994 3.90782 10.5384 3.90782 11.3314V44.5679C3.90782 45.0927 4.48424 45.4236 4.96927 45.2232C5.32501 45.0762 5.69805 44.9602 6.08841 44.8751L6.26618 44.8356Z" fill="#899DFF"/>
<path d="M3.90782 8.45941V45.7599M6.73451 55.5245C5.1654 55.5245 3.82128 55.0014 2.70214 53.9551C1.58301 52.9069 1.02344 51.6111 1.02344 50.0678V11.3314C1.02344 9.82673 1.53301 8.50776 2.55216 7.37446C3.57131 6.24115 4.82697 5.51785 6.31916 5.20454L29.1199 0.362231C30.4199 0.0861443 31.644 1.07759 31.644 2.40658V40.5428C31.644 41.5257 30.9592 42.3757 29.9989 42.5849L6.08841 47.7935C5.50768 47.9269 4.99907 48.1938 4.56257 48.5941C4.12607 48.9925 3.90782 49.4838 3.90782 50.0678C3.90782 50.8221 4.18856 51.4371 4.75005 51.9128C5.31155 52.3886 5.97399 52.6255 6.73739 52.6236H36.4304C37.5847 52.6236 38.5204 51.6879 38.5204 50.5336V10.5514C38.5204 9.75492 39.166 9.10923 39.9625 9.10923C40.759 9.10923 41.4047 9.75492 41.4047 10.5514V53.4346C41.4047 54.5888 40.469 55.5245 39.3148 55.5245H6.73451ZM6.65374 8.13161C5.86535 8.3018 5.21155 8.67989 4.69237 9.26588C4.16933 9.84994 3.90782 10.5384 3.90782 11.3314V44.5679C3.90782 45.0927 4.48424 45.4236 4.96927 45.2232C5.32501 45.0762 5.69805 44.9602 6.08841 44.8751L6.26618 44.8356C7.22237 44.6231 7.90268 43.775 7.90268 42.7954V9.135C7.90268 8.47826 7.29505 7.9901 6.65374 8.13161ZM12.4414 6.89718L26.2312 3.95863C27.5316 3.68153 28.7567 4.6731 28.7567 6.00268V38.2452C28.7567 39.2268 28.0737 40.076 27.115 40.2865L13.3252 43.3141C12.0214 43.6004 10.7871 42.6077 10.7871 41.2728V8.94122C10.7871 7.95485 11.4767 7.10276 12.4414 6.89718Z" stroke="#899DFF" stroke-width="0.522485"/>
</svg>
