<svg width="25" height="21" viewBox="0 0 25 21" fill="none" xmlns="http://www.w3.org/2000/svg">
<path d="M19.6054 1.04097C22.3529 1.17018 24.5173 3.44775 24.4693 6.19988C24.4211 8.95192 22.1786 11.1517 19.4284 11.1849L19.4283 11.1898L11.9857 11.1371L0.478429 6.8643L0.585938 0.705078L19.6055 1.03706L19.6054 1.04097Z" fill="url(#paint0_linear_399_6645)"/>
<path d="M11.6755 11.059L23.8008 16.3515L23.7301 20.4065L15.577 20.2642L15.5878 19.6452C15.624 17.5688 13.9697 15.8566 11.8932 15.8204L11.739 15.8177L11.6626 20.1959L0.247299 19.9967L0.406738 10.8623L11.6755 11.059Z" fill="url(#paint1_linear_399_6645)"/>
<path d="M18.9514 4.26878C19.762 4.28293 20.4075 4.94747 20.3935 5.75316C20.3795 6.55888 19.7111 7.20045 18.9005 7.1863C18.0902 7.17183 17.4444 6.50744 17.4584 5.70193C17.4725 4.89644 18.1412 4.25497 18.9514 4.26878Z" fill="#172361"/>
<defs>
<linearGradient id="paint0_linear_399_6645" x1="12.5719" y1="0.914292" x2="12.3934" y2="11.1443" gradientUnits="userSpaceOnUse">
<stop stop-color="#F0F0F0"/>
<stop offset="1" stop-color="#6BB8C5"/>
</linearGradient>
<linearGradient id="paint1_linear_399_6645" x1="12.1481" y1="11.0672" x2="11.9887" y2="20.2016" gradientUnits="userSpaceOnUse">
<stop stop-color="#F0F0F0"/>
<stop offset="1" stop-color="#6BB8C5"/>
</linearGradient>
</defs>
</svg>
