<svg width="417" height="242" viewBox="0 0 417 242" fill="none" xmlns="http://www.w3.org/2000/svg">
<g filter="url(#filter0_n_913_1503)">
<rect width="222.916" height="222.916" transform="matrix(0.932807 0.360375 -0.932807 0.360375 208.719 0.87793)" fill="#86A0FC"/>
<rect width="222.916" height="80.3332" transform="matrix(0.932807 0.360375 0 1 0.779297 81.21)" fill="#5C7FFA"/>
<rect width="222.916" height="80.3332" transform="matrix(0.932807 -0.360375 0 1 208.719 161.544)" fill="#365AD8"/>
</g>
<path d="M240.173 199.784C238.524 200.385 237.036 200.564 235.709 200.322C234.399 200.074 233.342 199.433 232.539 198.399C231.753 197.36 231.313 195.947 231.219 194.16C231.125 192.356 231.402 190.672 232.052 189.11C232.719 187.541 233.67 186.17 234.906 184.995C236.158 183.815 237.609 182.924 239.258 182.324C240.923 181.718 242.41 181.539 243.721 181.787C245.031 182.035 246.088 182.676 246.891 183.709C247.693 184.743 248.142 186.162 248.237 187.966C248.33 189.753 248.044 191.43 247.378 192.999C246.711 194.567 245.76 195.939 244.524 197.113C243.288 198.288 241.838 199.178 240.173 199.784ZM240.054 197.521C241.229 197.093 242.261 196.47 243.15 195.651C244.039 194.833 244.727 193.849 245.216 192.698C245.705 191.548 245.912 190.262 245.837 188.839C245.763 187.417 245.431 186.327 244.842 185.569C244.254 184.81 243.489 184.355 242.55 184.202C241.609 184.032 240.551 184.16 239.376 184.588C238.233 185.004 237.21 185.633 236.306 186.474C235.401 187.299 234.704 188.286 234.216 189.436C233.727 190.587 233.52 191.873 233.594 193.295C233.669 194.718 234 195.808 234.589 196.566C235.178 197.324 235.95 197.777 236.906 197.924C237.862 198.071 238.911 197.937 240.054 197.521ZM250.786 182.397L253.137 181.542L253.817 194.526L251.467 195.382L250.786 182.397ZM257.391 182.248C256.542 182.556 255.827 183.029 255.244 183.665C254.679 184.295 254.232 184.979 253.905 185.717C253.594 186.449 253.396 187.114 253.311 187.71L253.208 186.236C253.216 186.057 253.242 185.773 253.288 185.385C253.35 184.973 253.467 184.498 253.638 183.958C253.809 183.419 254.047 182.881 254.352 182.346C254.656 181.793 255.045 181.289 255.52 180.834C255.995 180.378 256.576 180.025 257.261 179.775L257.391 182.248ZM265.133 190.673C264.088 191.053 263.118 191.115 262.223 190.857C261.328 190.6 260.601 190.06 260.042 189.238C259.482 188.399 259.168 187.32 259.099 186.001C259.03 184.683 259.222 183.429 259.675 182.238C260.144 181.025 260.812 179.968 261.68 179.069C262.547 178.152 263.535 177.492 264.645 177.088C265.87 176.642 266.832 176.601 267.533 176.965C268.251 177.323 268.767 177.966 269.082 178.894C269.413 179.817 269.611 180.902 269.677 182.151C269.713 182.845 269.67 183.612 269.548 184.452C269.425 185.292 269.203 186.125 268.88 186.949C268.557 187.774 268.089 188.519 267.475 189.184C266.86 189.832 266.079 190.329 265.133 190.673ZM265.681 188.273C266.546 187.958 267.262 187.494 267.828 186.881C268.411 186.245 268.83 185.526 269.088 184.726C269.345 183.925 269.452 183.099 269.407 182.249C269.359 181.33 269.162 180.58 268.815 179.999C268.485 179.412 268.008 179.037 267.384 178.876C266.776 178.708 266.048 178.778 265.199 179.087C263.926 179.551 262.961 180.344 262.305 181.467C261.665 182.584 261.379 183.81 261.449 185.146C261.497 186.048 261.71 186.783 262.089 187.353C262.467 187.904 262.961 188.273 263.569 188.458C264.193 188.62 264.897 188.558 265.681 188.273ZM269.066 175.744L271.417 174.888L272.097 187.873L269.943 188.657C269.943 188.657 269.918 188.507 269.869 188.207C269.819 187.889 269.766 187.511 269.71 187.071C269.654 186.632 269.616 186.239 269.598 185.892L269.066 175.744ZM286.878 177.455C286.836 178.566 286.559 179.622 286.046 180.622C285.548 181.599 284.869 182.456 284.009 183.193C283.15 183.93 282.181 184.495 281.104 184.887C279.912 185.32 278.805 185.458 277.782 185.3C276.758 185.125 275.918 184.644 275.261 183.858C274.62 183.048 274.262 181.941 274.188 180.536C274.114 179.113 274.344 177.792 274.879 176.572C275.429 175.328 276.188 174.257 277.156 173.357C278.123 172.456 279.203 171.789 280.395 171.356C281.472 170.964 282.454 170.818 283.341 170.92C284.228 171.021 284.97 171.361 285.566 171.94C286.161 172.501 286.543 173.299 286.714 174.333L284.584 175.108C284.257 174.272 283.721 173.716 282.974 173.44C282.243 173.14 281.421 173.157 280.507 173.489C279.756 173.763 279.063 174.2 278.429 174.802C277.812 175.398 277.325 176.115 276.97 176.951C276.63 177.764 276.486 178.674 276.539 179.68C276.59 180.652 276.821 181.416 277.233 181.973C277.66 182.507 278.202 182.84 278.858 182.973C279.512 183.088 280.223 183.006 280.991 182.727C282.035 182.347 282.87 181.769 283.495 180.993C284.12 180.218 284.545 179.294 284.772 178.222L286.878 177.455ZM288.874 163.231L291.224 162.376L292.178 180.565L289.827 181.42L288.874 163.231ZM304.742 171.696L306.97 170.885C306.884 171.782 306.614 172.658 306.16 173.513C305.706 174.368 305.089 175.14 304.31 175.83C303.531 176.521 302.603 177.062 301.526 177.454C300.252 177.917 299.103 178.044 298.077 177.834C297.051 177.624 296.226 177.12 295.602 176.322C294.978 175.523 294.631 174.456 294.561 173.121C294.49 171.767 294.706 170.487 295.208 169.279C295.71 168.053 296.435 166.976 297.384 166.047C298.334 165.118 299.437 164.425 300.694 163.967C302.016 163.486 303.141 163.36 304.068 163.588C304.995 163.816 305.699 164.4 306.181 165.338C306.678 166.253 306.928 167.532 306.931 169.175L296.916 172.82C297.039 173.571 297.295 174.185 297.686 174.661C298.093 175.132 298.608 175.431 299.23 175.558C299.869 175.679 300.588 175.594 301.388 175.303C302.286 174.976 303.025 174.486 303.606 173.833C304.188 173.179 304.566 172.467 304.742 171.696ZM300.83 166.092C299.769 166.478 298.904 167.103 298.234 167.965C297.563 168.811 297.139 169.769 296.962 170.841L304.479 168.105C304.358 167.071 303.957 166.395 303.275 166.077C302.592 165.743 301.777 165.748 300.83 166.092ZM316.953 154.337L317.721 168.987L327.074 165.583L327.192 167.82L315.488 172.08L314.603 155.193L316.953 154.337ZM334.524 165.417C333.48 165.797 332.51 165.858 331.615 165.601C330.719 165.343 329.992 164.803 329.434 163.981C328.874 163.142 328.56 162.063 328.491 160.745C328.421 159.426 328.614 158.172 329.067 156.982C329.536 155.768 330.204 154.712 331.072 153.812C331.939 152.896 332.927 152.235 334.037 151.831C335.261 151.386 336.224 151.345 336.925 151.708C337.642 152.066 338.159 152.709 338.473 153.638C338.805 154.56 339.003 155.646 339.068 156.895C339.105 157.589 339.062 158.356 338.939 159.196C338.817 160.036 338.595 160.868 338.272 161.693C337.949 162.517 337.481 163.262 336.867 163.928C336.252 164.576 335.471 165.072 334.524 165.417ZM335.072 163.016C335.937 162.701 336.653 162.238 337.22 161.625C337.802 160.988 338.222 160.27 338.48 159.469C338.737 158.668 338.844 157.843 338.799 156.993C338.751 156.073 338.553 155.323 338.207 154.742C337.877 154.155 337.4 153.781 336.776 153.619C336.168 153.451 335.44 153.522 334.591 153.831C333.318 154.294 332.353 155.087 331.696 156.21C331.056 157.327 330.771 158.553 330.841 159.889C330.888 160.791 331.102 161.527 331.481 162.096C331.859 162.648 332.352 163.016 332.961 163.201C333.585 163.363 334.289 163.301 335.072 163.016ZM338.458 150.488L340.809 149.632L341.489 162.617L339.334 163.401C339.334 163.401 339.31 163.251 339.261 162.95C339.211 162.633 339.158 162.254 339.102 161.815C339.045 161.376 339.008 160.983 338.99 160.636L338.458 150.488ZM342.773 148.917L345.27 148.008L350.6 158.77L348.595 160.03L342.773 148.917ZM355.236 144.381L348.868 165.234L346.395 166.135L349.184 157.933L352.763 145.281L355.236 144.381ZM366.697 149.146L368.925 148.335C368.839 149.232 368.569 150.108 368.115 150.963C367.661 151.818 367.044 152.59 366.265 153.281C365.486 153.971 364.558 154.512 363.481 154.904C362.207 155.367 361.058 155.494 360.032 155.284C359.006 155.074 358.182 154.57 357.558 153.772C356.933 152.973 356.586 151.906 356.516 150.571C356.446 149.218 356.661 147.937 357.163 146.729C357.665 145.503 358.39 144.426 359.34 143.497C360.289 142.568 361.392 141.875 362.649 141.417C363.971 140.936 365.096 140.81 366.023 141.038C366.95 141.266 367.654 141.85 368.136 142.788C368.633 143.703 368.883 144.982 368.886 146.626L358.871 150.271C358.994 151.021 359.25 151.635 359.641 152.112C360.049 152.582 360.563 152.881 361.186 153.008C361.824 153.129 362.543 153.044 363.343 152.753C364.241 152.426 364.98 151.936 365.562 151.283C366.143 150.629 366.521 149.917 366.697 149.146ZM362.785 143.542C361.724 143.929 360.859 144.553 360.189 145.416C359.518 146.261 359.094 147.219 358.917 148.291L366.434 145.555C366.314 144.521 365.912 143.845 365.23 143.528C364.547 143.193 363.732 143.198 362.785 143.542ZM370.99 138.647L373.341 137.791L374.021 150.776L371.671 151.631L370.99 138.647ZM377.595 138.497C376.746 138.806 376.031 139.278 375.448 139.915C374.883 140.545 374.436 141.229 374.109 141.967C373.798 142.699 373.6 143.363 373.515 143.96L373.412 142.485C373.42 142.306 373.446 142.022 373.492 141.634C373.554 141.223 373.671 140.747 373.842 140.208C374.013 139.668 374.251 139.13 374.556 138.595C374.86 138.043 375.249 137.539 375.724 137.083C376.199 136.627 376.78 136.274 377.465 136.025L377.595 138.497Z" fill="white"/>
<defs>
<filter id="filter0_n_913_1503" x="0.779297" y="0.87793" width="415.877" height="240.999" filterUnits="userSpaceOnUse" color-interpolation-filters="sRGB">
<feFlood flood-opacity="0" result="BackgroundImageFix"/>
<feBlend mode="normal" in="SourceGraphic" in2="BackgroundImageFix" result="shape"/>
<feTurbulence type="fractalNoise" baseFrequency="0.73508435487747192 0.73508435487747192" stitchTiles="stitch" numOctaves="3" result="noise" seed="7783" />
<feColorMatrix in="noise" type="luminanceToAlpha" result="alphaNoise" />
<feComponentTransfer in="alphaNoise" result="coloredNoise1">
<feFuncA type="discrete" tableValues="1 1 1 1 1 1 1 1 1 1 1 1 1 1 1 1 1 1 1 1 1 1 1 1 1 1 1 1 1 1 1 1 1 1 1 1 1 1 1 1 1 1 1 1 1 1 1 1 1 1 1 0 0 0 0 0 0 0 0 0 0 0 0 0 0 0 0 0 0 0 0 0 0 0 0 0 0 0 0 0 0 0 0 0 0 0 0 0 0 0 0 0 0 0 0 0 0 0 0 0 "/>
</feComponentTransfer>
<feComposite operator="in" in2="shape" in="coloredNoise1" result="noise1Clipped" />
<feFlood flood-color="rgba(0, 0, 0, 0.25)" result="color1Flood" />
<feComposite operator="in" in2="noise1Clipped" in="color1Flood" result="color1" />
<feMerge result="effect1_noise_913_1503">
<feMergeNode in="shape" />
<feMergeNode in="color1" />
</feMerge>
</filter>
</defs>
</svg>
