<svg width="413" height="240" viewBox="0 0 413 240" fill="none" xmlns="http://www.w3.org/2000/svg">
<g filter="url(#filter0_n_913_1502)">
<rect width="221.138" height="221.138" transform="matrix(0.932807 0.360375 -0.932807 0.360375 206.723 0.115234)" fill="#86A0FC"/>
<rect width="221.138" height="79.6927" transform="matrix(0.932807 0.360375 0 1 0.439453 79.8096)" fill="#5C7FFA"/>
<rect width="221.138" height="79.6927" transform="matrix(0.932807 -0.360375 0 1 206.723 159.501)" fill="#365AD8"/>
</g>
<path d="M228.351 183.363C229.986 182.768 231.366 182.494 232.491 182.54C233.631 182.564 234.553 182.842 235.258 183.375C235.978 183.902 236.511 184.611 236.854 185.503C237.198 186.395 237.399 187.401 237.458 188.519C237.516 189.621 237.409 190.738 237.139 191.871C236.884 192.998 236.43 194.085 235.775 195.13C235.136 196.169 234.278 197.121 233.201 197.987C232.124 198.835 230.8 199.545 229.229 200.117L222.913 202.415L222.035 185.662L228.351 183.363ZM225.127 199.321L229.087 197.88C230.334 197.426 231.353 196.879 232.145 196.24C232.935 195.584 233.55 194.878 233.989 194.122C234.443 193.343 234.748 192.548 234.904 191.737C235.076 190.921 235.142 190.134 235.102 189.377C235.061 188.602 234.917 187.892 234.668 187.246C234.436 186.594 234.062 186.072 233.547 185.681C233.046 185.267 232.383 185.044 231.556 185.011C230.728 184.962 229.691 185.164 228.444 185.618L224.485 187.059L225.127 199.321ZM245.689 194.389C244.652 194.766 243.69 194.827 242.802 194.571C241.914 194.316 241.193 193.78 240.638 192.965C240.083 192.132 239.771 191.062 239.703 189.754C239.634 188.446 239.825 187.202 240.275 186.021C240.74 184.817 241.402 183.769 242.263 182.877C243.123 181.968 244.104 181.313 245.205 180.912C246.42 180.47 247.375 180.429 248.07 180.79C248.782 181.144 249.294 181.782 249.606 182.703C249.935 183.619 250.131 184.696 250.196 185.935C250.232 186.623 250.19 187.384 250.068 188.217C249.947 189.051 249.726 189.876 249.406 190.694C249.086 191.512 248.621 192.252 248.012 192.912C247.402 193.554 246.628 194.047 245.689 194.389ZM246.232 192.007C247.09 191.695 247.801 191.235 248.363 190.627C248.94 189.996 249.357 189.283 249.612 188.489C249.868 187.694 249.973 186.875 249.929 186.032C249.881 185.12 249.685 184.376 249.342 183.799C249.014 183.217 248.541 182.846 247.922 182.685C247.319 182.519 246.597 182.589 245.755 182.895C244.491 183.355 243.534 184.142 242.883 185.256C242.248 186.364 241.965 187.58 242.035 188.905C242.082 189.8 242.293 190.53 242.669 191.095C243.044 191.642 243.534 192.007 244.138 192.191C244.757 192.352 245.455 192.29 246.232 192.007ZM249.591 179.579L251.923 178.73L252.598 191.611L250.46 192.389C250.46 192.389 250.436 192.24 250.387 191.942C250.338 191.627 250.285 191.251 250.229 190.816C250.173 190.38 250.136 189.99 250.118 189.646L249.591 179.579ZM254.114 177.932L261.96 175.077L262.072 177.219L254.226 180.075L254.114 177.932ZM256.704 173.517L259.012 172.677L259.866 188.966L257.558 189.805L256.704 173.517ZM269.647 185.669C268.61 186.046 267.648 186.107 266.76 185.851C265.872 185.596 265.151 185.06 264.597 184.245C264.041 183.412 263.73 182.342 263.661 181.034C263.592 179.726 263.783 178.482 264.233 177.301C264.698 176.097 265.361 175.049 266.222 174.157C267.082 173.248 268.062 172.592 269.163 172.192C270.378 171.75 271.333 171.709 272.028 172.07C272.74 172.424 273.252 173.062 273.564 173.983C273.893 174.898 274.09 175.976 274.154 177.215C274.191 177.903 274.148 178.664 274.027 179.497C273.905 180.331 273.684 181.156 273.364 181.974C273.044 182.792 272.579 183.531 271.97 184.192C271.361 184.834 270.586 185.327 269.647 185.669ZM270.19 183.287C271.049 182.975 271.759 182.515 272.321 181.907C272.899 181.276 273.315 180.563 273.57 179.768C273.826 178.974 273.931 178.155 273.887 177.312C273.839 176.4 273.644 175.656 273.3 175.079C272.972 174.497 272.499 174.126 271.88 173.965C271.277 173.799 270.555 173.869 269.713 174.175C268.45 174.635 267.493 175.422 266.841 176.536C266.206 177.644 265.923 178.86 265.993 180.185C266.04 181.08 266.251 181.81 266.627 182.374C267.003 182.922 267.492 183.287 268.096 183.471C268.715 183.631 269.413 183.57 270.19 183.287ZM273.549 170.858L275.881 170.01L276.556 182.891L274.418 183.669C274.418 183.669 274.394 183.52 274.346 183.222C274.296 182.907 274.243 182.531 274.187 182.096C274.132 181.66 274.095 181.27 274.077 180.926L273.549 170.858ZM286.777 162.098L287.539 176.631L296.818 173.254L296.934 175.474L285.323 179.7L284.445 162.947L286.777 162.098ZM304.208 173.089C303.172 173.466 302.21 173.527 301.322 173.272C300.434 173.016 299.713 172.481 299.158 171.665C298.603 170.833 298.291 169.762 298.223 168.455C298.154 167.147 298.345 165.902 298.794 164.721C299.259 163.518 299.922 162.47 300.783 161.577C301.643 160.668 302.624 160.013 303.725 159.612C304.939 159.17 305.894 159.13 306.59 159.49C307.302 159.845 307.814 160.483 308.126 161.404C308.454 162.319 308.651 163.396 308.716 164.635C308.752 165.324 308.709 166.085 308.588 166.918C308.467 167.751 308.246 168.577 307.926 169.395C307.606 170.213 307.141 170.952 306.532 171.612C305.922 172.255 305.148 172.747 304.208 173.089ZM304.752 170.708C305.61 170.396 306.32 169.935 306.883 169.327C307.46 168.696 307.877 167.984 308.132 167.189C308.387 166.395 308.493 165.576 308.449 164.733C308.401 163.82 308.205 163.076 307.861 162.5C307.534 161.918 307.061 161.546 306.442 161.386C305.839 161.219 305.116 161.289 304.274 161.596C303.011 162.055 302.054 162.842 301.403 163.956C300.768 165.064 300.485 166.281 300.554 167.606C300.601 168.501 300.813 169.23 301.189 169.795C301.564 170.342 302.054 170.708 302.657 170.892C303.276 171.052 303.975 170.991 304.752 170.708ZM308.111 158.279L310.442 157.43L311.118 170.311L308.98 171.089C308.98 171.089 308.956 170.94 308.907 170.642C308.858 170.327 308.805 169.952 308.749 169.516C308.693 169.081 308.656 168.691 308.638 168.346L308.111 158.279ZM312.391 156.721L314.868 155.819L320.156 166.496L318.167 167.746L312.391 156.721ZM324.755 152.221L318.437 172.908L315.984 173.801L318.751 165.665L322.301 153.114L324.755 152.221ZM336.125 156.948L338.335 156.143C338.25 157.034 337.982 157.903 337.531 158.751C337.08 159.599 336.469 160.365 335.696 161.05C334.923 161.735 334.002 162.271 332.934 162.66C331.671 163.12 330.53 163.246 329.513 163.037C328.495 162.829 327.677 162.329 327.058 161.537C326.439 160.745 326.094 159.687 326.025 158.362C325.955 157.019 326.169 155.749 326.667 154.55C327.164 153.335 327.884 152.266 328.826 151.344C329.768 150.423 330.862 149.735 332.109 149.281C333.42 148.804 334.536 148.679 335.456 148.905C336.375 149.132 337.074 149.71 337.552 150.641C338.045 151.549 338.293 152.818 338.296 154.448L328.361 158.064C328.482 158.809 328.737 159.418 329.125 159.89C329.529 160.357 330.04 160.653 330.657 160.78C331.29 160.9 332.004 160.815 332.797 160.527C333.688 160.202 334.421 159.716 334.998 159.068C335.575 158.42 335.95 157.713 336.125 156.948ZM332.244 151.389C331.191 151.772 330.333 152.392 329.668 153.248C329.002 154.086 328.582 155.037 328.407 156.101L335.864 153.386C335.744 152.36 335.346 151.69 334.669 151.375C333.992 151.043 333.183 151.047 332.244 151.389ZM340.383 146.533L342.715 145.684L343.39 158.565L341.059 159.414L340.383 146.533ZM346.935 146.384C346.093 146.691 345.384 147.159 344.806 147.79C344.245 148.416 343.802 149.094 343.477 149.826C343.169 150.552 342.972 151.211 342.888 151.803L342.786 150.341C342.793 150.163 342.82 149.881 342.866 149.496C342.927 149.088 343.042 148.616 343.212 148.081C343.382 147.546 343.618 147.013 343.921 146.482C344.222 145.934 344.608 145.433 345.08 144.981C345.551 144.529 346.127 144.179 346.807 143.932L346.935 146.384Z" fill="white"/>
<defs>
<filter id="filter0_n_913_1502" x="0.439453" y="0.115234" width="412.562" height="239.08" filterUnits="userSpaceOnUse" color-interpolation-filters="sRGB">
<feFlood flood-opacity="0" result="BackgroundImageFix"/>
<feBlend mode="normal" in="SourceGraphic" in2="BackgroundImageFix" result="shape"/>
<feTurbulence type="fractalNoise" baseFrequency="0.7409929633140564 0.7409929633140564" stitchTiles="stitch" numOctaves="3" result="noise" seed="7783" />
<feColorMatrix in="noise" type="luminanceToAlpha" result="alphaNoise" />
<feComponentTransfer in="alphaNoise" result="coloredNoise1">
<feFuncA type="discrete" tableValues="1 1 1 1 1 1 1 1 1 1 1 1 1 1 1 1 1 1 1 1 1 1 1 1 1 1 1 1 1 1 1 1 1 1 1 1 1 1 1 1 1 1 1 1 1 1 1 1 1 1 1 0 0 0 0 0 0 0 0 0 0 0 0 0 0 0 0 0 0 0 0 0 0 0 0 0 0 0 0 0 0 0 0 0 0 0 0 0 0 0 0 0 0 0 0 0 0 0 0 0 "/>
</feComponentTransfer>
<feComposite operator="in" in2="shape" in="coloredNoise1" result="noise1Clipped" />
<feFlood flood-color="rgba(0, 0, 0, 0.25)" result="color1Flood" />
<feComposite operator="in" in2="noise1Clipped" in="color1Flood" result="color1" />
<feMerge result="effect1_noise_913_1502">
<feMergeNode in="shape" />
<feMergeNode in="color1" />
</feMerge>
</filter>
</defs>
</svg>
