<svg width="417" height="242" viewBox="0 0 417 242" fill="none" xmlns="http://www.w3.org/2000/svg">
<g filter="url(#filter0_n_913_1504)">
<rect width="223.284" height="223.284" transform="matrix(0.932807 0.360375 -0.932807 0.360375 208.719 0.398438)" fill="#86A0FC"/>
<rect width="223.284" height="80.4661" transform="matrix(0.932807 0.360375 0 1 0.435547 80.8662)" fill="#5C7FFA"/>
<rect width="223.284" height="80.4661" transform="matrix(0.932807 -0.360375 0 1 208.719 161.33)" fill="#365AD8"/>
</g>
<path d="M233.428 199.819L233.646 203.967L242.014 200.921L242.11 202.751L231.82 206.497L231.096 192.689L241.366 188.95L241.462 190.78L233.114 193.819L233.335 198.031L240.162 195.547L240.255 197.334L233.428 199.819ZM253.192 187.899L249.212 195.266L246.121 201.291L243.778 202.144L248.002 194.362L250.869 188.744L253.192 187.899ZM243.222 191.527L245.604 190.66L249.144 193.968L253.968 198.435L251.646 199.28L247.952 195.747L243.222 191.527ZM262.859 191.687L264.681 191.024C264.611 191.757 264.39 192.474 264.018 193.173C263.647 193.872 263.143 194.503 262.506 195.068C261.869 195.632 261.11 196.074 260.229 196.395C259.188 196.774 258.248 196.877 257.41 196.706C256.571 196.534 255.896 196.122 255.386 195.469C254.876 194.816 254.592 193.944 254.535 192.852C254.477 191.745 254.653 190.698 255.064 189.711C255.474 188.709 256.067 187.828 256.843 187.068C257.62 186.309 258.522 185.742 259.549 185.368C260.63 184.974 261.55 184.871 262.308 185.058C263.066 185.244 263.641 185.721 264.035 186.489C264.442 187.237 264.646 188.283 264.649 189.626L256.46 192.606C256.56 193.22 256.77 193.722 257.09 194.112C257.423 194.496 257.844 194.741 258.353 194.845C258.875 194.944 259.463 194.874 260.117 194.636C260.851 194.369 261.455 193.968 261.931 193.434C262.406 192.9 262.715 192.317 262.859 191.687ZM259.661 187.105C258.793 187.421 258.085 187.931 257.538 188.637C256.989 189.328 256.642 190.112 256.498 190.988L262.644 188.751C262.545 187.905 262.217 187.353 261.66 187.093C261.101 186.819 260.435 186.823 259.661 187.105ZM276.504 186.113C276.47 187.022 276.243 187.885 275.823 188.703C275.416 189.501 274.861 190.202 274.159 190.805C273.456 191.407 272.664 191.869 271.783 192.19C270.809 192.544 269.903 192.657 269.067 192.528C268.23 192.384 267.542 191.991 267.006 191.348C266.481 190.686 266.189 189.781 266.129 188.632C266.068 187.469 266.256 186.389 266.693 185.391C267.143 184.375 267.764 183.498 268.555 182.762C269.346 182.026 270.229 181.481 271.203 181.126C272.084 180.806 272.887 180.687 273.612 180.77C274.337 180.853 274.944 181.131 275.431 181.604C275.917 182.063 276.23 182.715 276.37 183.56L274.628 184.194C274.361 183.511 273.922 183.056 273.312 182.83C272.714 182.585 272.042 182.599 271.294 182.871C270.681 183.094 270.114 183.452 269.596 183.944C269.091 184.432 268.694 185.017 268.403 185.701C268.125 186.366 268.008 187.11 268.051 187.933C268.092 188.727 268.281 189.352 268.618 189.807C268.967 190.244 269.41 190.516 269.946 190.625C270.482 190.719 271.063 190.652 271.69 190.424C272.545 190.113 273.227 189.64 273.738 189.006C274.249 188.372 274.597 187.617 274.782 186.74L276.504 186.113ZM288.144 185.996L286.243 186.688L285.686 176.072L287.588 175.379L288.144 185.996ZM286.081 181.652L286.134 182.283C286.13 182.472 286.098 182.766 286.037 183.164C285.989 183.543 285.89 183.976 285.738 184.465C285.601 184.949 285.395 185.443 285.122 185.947C284.863 186.446 284.52 186.903 284.093 187.319C283.666 187.735 283.138 188.057 282.511 188.285C282.084 188.44 281.64 188.537 281.18 188.574C280.733 188.607 280.314 188.542 279.925 188.381C279.536 188.219 279.214 187.924 278.961 187.496C278.706 187.054 278.558 186.442 278.518 185.662L278.159 178.811L280.08 178.112L280.417 184.537C280.451 185.19 280.572 185.666 280.778 185.967C280.997 186.263 281.291 186.423 281.66 186.448C282.028 186.473 282.44 186.403 282.893 186.238C283.587 185.985 284.159 185.597 284.607 185.072C285.068 184.528 285.419 183.953 285.659 183.345C285.899 182.723 286.039 182.159 286.081 181.652ZM289.403 174.719L295.87 172.365L295.963 174.131L289.496 176.485L289.403 174.719ZM291.539 171.08L293.441 170.387L294.144 183.812L292.242 184.505L291.539 171.08ZM299.763 166.482L299.877 168.673L297.495 169.54L297.38 167.349L299.763 166.482ZM297.85 171.644L299.752 170.952L300.308 181.569L298.407 182.261L297.85 171.644ZM307.854 179.061C306.88 179.415 305.974 179.521 305.137 179.378C304.299 179.234 303.619 178.839 303.095 178.191C302.572 177.543 302.28 176.645 302.22 175.496C302.159 174.333 302.347 173.253 302.784 172.255C303.221 171.243 303.835 170.369 304.626 169.633C305.417 168.897 306.3 168.352 307.274 167.997C308.248 167.643 309.148 167.54 309.971 167.688C310.795 167.836 311.469 168.241 311.994 168.903C312.517 169.551 312.81 170.456 312.87 171.619C312.931 172.768 312.742 173.842 312.305 174.839C311.867 175.837 311.26 176.701 310.482 177.432C309.704 178.163 308.828 178.706 307.854 179.061ZM307.761 177.295C308.362 177.076 308.908 176.733 309.401 176.265C309.906 175.777 310.297 175.201 310.575 174.536C310.866 173.852 310.99 173.113 310.949 172.319C310.906 171.51 310.71 170.881 310.36 170.43C310.023 169.974 309.587 169.692 309.051 169.584C308.528 169.471 307.966 169.523 307.366 169.742C306.765 169.961 306.212 170.314 305.707 170.801C305.202 171.274 304.803 171.853 304.513 172.537C304.222 173.22 304.099 173.974 304.142 174.796C304.183 175.591 304.372 176.216 304.709 176.671C305.058 177.108 305.501 177.38 306.037 177.489C306.573 177.583 307.147 177.518 307.761 177.295ZM314.602 165.547L316.523 164.848L317.08 175.464L315.158 176.164L314.602 165.547ZM320.316 163.251C320.877 163.046 321.388 162.947 321.851 162.952C322.314 162.957 322.714 163.072 323.052 163.295C323.39 163.505 323.658 163.826 323.858 164.26C324.07 164.674 324.192 165.193 324.225 165.817L324.587 172.732L322.686 173.424L322.347 166.956C322.303 166.119 322.076 165.566 321.668 165.295C321.272 165.006 320.687 165.002 319.913 165.284C319.312 165.502 318.773 165.85 318.294 166.328C317.816 166.806 317.43 167.351 317.136 167.964C316.854 168.558 316.696 169.172 316.661 169.806L316.58 168.643C316.617 168.052 316.729 167.476 316.917 166.916C317.119 166.351 317.377 165.831 317.693 165.355C318.02 164.859 318.406 164.437 318.85 164.088C319.294 163.724 319.782 163.445 320.316 163.251ZM333.021 155.591L333.649 167.569L341.297 164.786L341.393 166.615L331.823 170.098L331.099 156.29L333.021 155.591ZM347.388 164.65C346.534 164.961 345.741 165.011 345.009 164.8C344.277 164.59 343.683 164.148 343.226 163.476C342.768 162.79 342.511 161.908 342.454 160.83C342.398 159.752 342.555 158.726 342.926 157.753C343.309 156.761 343.855 155.897 344.565 155.162C345.274 154.412 346.082 153.873 346.989 153.542C347.99 153.178 348.778 153.144 349.351 153.442C349.937 153.734 350.359 154.26 350.617 155.019C350.888 155.773 351.05 156.661 351.103 157.682C351.133 158.25 351.098 158.877 350.998 159.563C350.898 160.25 350.716 160.931 350.452 161.605C350.188 162.279 349.805 162.888 349.303 163.433C348.8 163.962 348.162 164.368 347.388 164.65ZM347.836 162.687C348.543 162.43 349.129 162.051 349.592 161.549C350.068 161.029 350.411 160.442 350.622 159.787C350.832 159.132 350.919 158.457 350.883 157.762C350.844 157.011 350.682 156.397 350.399 155.922C350.129 155.442 349.739 155.136 349.229 155.004C348.732 154.867 348.136 154.924 347.442 155.177C346.401 155.556 345.612 156.204 345.076 157.122C344.552 158.036 344.319 159.038 344.376 160.131C344.415 160.868 344.589 161.47 344.899 161.935C345.209 162.386 345.612 162.687 346.11 162.839C346.62 162.971 347.195 162.921 347.836 162.687ZM350.604 152.443L352.526 151.744L353.083 162.36L351.321 163.002C351.321 163.002 351.301 162.879 351.261 162.633C351.22 162.374 351.176 162.064 351.13 161.705C351.084 161.346 351.054 161.025 351.039 160.741L350.604 152.443ZM354.132 151.159L356.174 150.416L360.532 159.215L358.893 160.246L354.132 151.159ZM364.322 147.45L359.116 164.501L357.094 165.237L359.374 158.531L362.3 148.186L364.322 147.45ZM373.694 151.346L375.515 150.683C375.445 151.417 375.224 152.133 374.853 152.832C374.481 153.531 373.977 154.163 373.34 154.727C372.703 155.291 371.944 155.734 371.064 156.054C370.023 156.433 369.083 156.537 368.244 156.365C367.405 156.193 366.731 155.781 366.221 155.129C365.71 154.476 365.427 153.604 365.369 152.511C365.311 151.405 365.488 150.358 365.898 149.37C366.308 148.368 366.901 147.487 367.678 146.728C368.454 145.968 369.356 145.401 370.384 145.027C371.465 144.634 372.384 144.531 373.142 144.717C373.9 144.904 374.476 145.381 374.87 146.148C375.276 146.896 375.481 147.942 375.483 149.286L367.295 152.266C367.395 152.88 367.605 153.382 367.924 153.771C368.257 154.156 368.678 154.4 369.187 154.504C369.709 154.603 370.297 154.534 370.951 154.296C371.685 154.029 372.29 153.628 372.765 153.094C373.24 152.559 373.55 151.977 373.694 151.346ZM370.495 146.765C369.628 147.081 368.92 147.591 368.372 148.296C367.823 148.988 367.477 149.771 367.332 150.648L373.478 148.411C373.38 147.565 373.052 147.012 372.494 146.753C371.935 146.479 371.269 146.483 370.495 146.765ZM377.204 142.762L379.126 142.062L379.682 152.679L377.76 153.379L377.204 142.762ZM382.604 142.639C381.91 142.892 381.325 143.278 380.849 143.799C380.386 144.314 380.021 144.873 379.753 145.476C379.499 146.075 379.337 146.618 379.268 147.106L379.184 145.901C379.19 145.754 379.212 145.522 379.25 145.205C379.3 144.868 379.395 144.479 379.535 144.038C379.675 143.597 379.87 143.157 380.119 142.72C380.367 142.268 380.686 141.856 381.074 141.483C381.463 141.111 381.937 140.822 382.498 140.618L382.604 142.639Z" fill="white"/>
<defs>
<filter id="filter0_n_913_1504" x="0.435547" y="0.398438" width="416.564" height="241.4" filterUnits="userSpaceOnUse" color-interpolation-filters="sRGB">
<feFlood flood-opacity="0" result="BackgroundImageFix"/>
<feBlend mode="normal" in="SourceGraphic" in2="BackgroundImageFix" result="shape"/>
<feTurbulence type="fractalNoise" baseFrequency="0.8990408182144165 0.8990408182144165" stitchTiles="stitch" numOctaves="3" result="noise" seed="7783" />
<feColorMatrix in="noise" type="luminanceToAlpha" result="alphaNoise" />
<feComponentTransfer in="alphaNoise" result="coloredNoise1">
<feFuncA type="discrete" tableValues="1 1 1 1 1 1 1 1 1 1 1 1 1 1 1 1 1 1 1 1 1 1 1 1 1 1 1 1 1 1 1 1 1 1 1 1 1 1 1 1 1 1 1 1 1 1 1 1 1 1 1 0 0 0 0 0 0 0 0 0 0 0 0 0 0 0 0 0 0 0 0 0 0 0 0 0 0 0 0 0 0 0 0 0 0 0 0 0 0 0 0 0 0 0 0 0 0 0 0 0 "/>
</feComponentTransfer>
<feComposite operator="in" in2="shape" in="coloredNoise1" result="noise1Clipped" />
<feFlood flood-color="rgba(0, 0, 0, 0.25)" result="color1Flood" />
<feComposite operator="in" in2="noise1Clipped" in="color1Flood" result="color1" />
<feMerge result="effect1_noise_913_1504">
<feMergeNode in="shape" />
<feMergeNode in="color1" />
</feMerge>
</filter>
</defs>
</svg>
