<svg width="278" height="292" viewBox="0 0 278 292" fill="none" xmlns="http://www.w3.org/2000/svg">
<g filter="url(#filter0_n_932_1502)">
<rect x="1" y="1" width="276" height="290" rx="100" fill="url(#paint0_radial_932_1502)"/>
<rect x="1" y="1" width="276" height="290" rx="100" fill="url(#paint1_radial_932_1502)"/>
<rect x="1" y="1" width="276" height="290" rx="100" stroke="url(#paint2_linear_932_1502)" stroke-width="1.67742"/>
</g>
<g filter="url(#filter1_i_932_1502)">
<path d="M141.939 92.3333H202.9C204.783 92.3333 206.589 93.1411 207.92 94.5788C209.252 96.0166 210 97.9666 210 100V207.333C210 209.367 209.252 211.317 207.92 212.754C206.589 214.192 204.783 215 202.9 215H75.1C73.2169 215 71.4111 214.192 70.0795 212.754C68.7481 211.317 68 209.367 68 207.333V84.6667C68 82.6333 68.7481 80.6833 70.0795 79.2455C71.4111 77.8078 73.2169 77 75.1 77H127.739L141.939 92.3333ZM82.2 92.3333V199.667H195.8V107.667H136.061L121.861 92.3333H82.2ZM131.9 123H146.1V184.333H131.9V123ZM160.3 146H174.5V184.333H160.3V146ZM103.5 161.333H117.7V184.333H103.5V161.333Z" fill="white"/>
</g>
<path d="M75.0996 77.5H127.521L141.572 92.6729L141.721 92.833H202.9C204.638 92.8331 206.313 93.5788 207.554 94.9189C208.796 96.2606 209.5 98.0876 209.5 100V207.333C209.5 209.245 208.796 211.074 207.554 212.415C206.313 213.755 204.638 214.5 202.9 214.5H75.0996C73.3624 214.5 71.6875 213.755 70.4463 212.415C69.204 211.074 68.5 209.245 68.5 207.333V84.667C68.5 82.7544 69.2039 80.9266 70.4463 79.585C71.6874 78.2449 73.3623 77.5001 75.0996 77.5ZM81.7002 200.167H196.3V107.167H136.279L122.228 91.9932L122.079 91.833H81.7002V200.167ZM174 146.5V183.833H160.8V146.5H174ZM145.6 123.5V183.833H132.4V123.5H145.6ZM117.2 161.833V183.833H104V161.833H117.2Z" stroke="#E5E5E5"/>
<defs>
<filter id="filter0_n_932_1502" x="0.162109" y="0.161133" width="277.676" height="291.678" filterUnits="userSpaceOnUse" color-interpolation-filters="sRGB">
<feFlood flood-opacity="0" result="BackgroundImageFix"/>
<feBlend mode="normal" in="SourceGraphic" in2="BackgroundImageFix" result="shape"/>
<feTurbulence type="fractalNoise" baseFrequency="1 1" stitchTiles="stitch" numOctaves="3" result="noise" seed="3870" />
<feColorMatrix in="noise" type="luminanceToAlpha" result="alphaNoise" />
<feComponentTransfer in="alphaNoise" result="coloredNoise1">
<feFuncA type="discrete" tableValues="1 1 1 1 1 1 1 1 1 1 1 1 1 1 1 1 1 1 1 1 1 1 1 1 1 1 1 1 1 1 1 1 1 1 1 1 1 1 1 1 1 1 1 1 1 1 1 1 1 1 1 0 0 0 0 0 0 0 0 0 0 0 0 0 0 0 0 0 0 0 0 0 0 0 0 0 0 0 0 0 0 0 0 0 0 0 0 0 0 0 0 0 0 0 0 0 0 0 0 0 "/>
</feComponentTransfer>
<feComposite operator="in" in2="shape" in="coloredNoise1" result="noise1Clipped" />
<feFlood flood-color="rgba(255, 255, 255, 0.25)" result="color1Flood" />
<feComposite operator="in" in2="noise1Clipped" in="color1Flood" result="color1" />
<feMerge result="effect1_noise_932_1502">
<feMergeNode in="shape" />
<feMergeNode in="color1" />
</feMerge>
</filter>
<filter id="filter1_i_932_1502" x="68" y="77" width="142" height="142" filterUnits="userSpaceOnUse" color-interpolation-filters="sRGB">
<feFlood flood-opacity="0" result="BackgroundImageFix"/>
<feBlend mode="normal" in="SourceGraphic" in2="BackgroundImageFix" result="shape"/>
<feColorMatrix in="SourceAlpha" type="matrix" values="0 0 0 0 0 0 0 0 0 0 0 0 0 0 0 0 0 0 127 0" result="hardAlpha"/>
<feOffset dy="4"/>
<feGaussianBlur stdDeviation="2"/>
<feComposite in2="hardAlpha" operator="arithmetic" k2="-1" k3="1"/>
<feColorMatrix type="matrix" values="0 0 0 0 0 0 0 0 0 0 0 0 0 0 0 0 0 0 0.25 0"/>
<feBlend mode="normal" in2="shape" result="effect1_innerShadow_932_1502"/>
</filter>
<radialGradient id="paint0_radial_932_1502" cx="0" cy="0" r="1" gradientUnits="userSpaceOnUse" gradientTransform="translate(176 89) rotate(61.0699) scale(178.814 170.182)">
<stop stop-color="#EFA1FF"/>
<stop offset="1" stop-color="white" stop-opacity="0"/>
</radialGradient>
<radialGradient id="paint1_radial_932_1502" cx="0" cy="0" r="1" gradientUnits="userSpaceOnUse" gradientTransform="translate(37.5 226) rotate(12.557) scale(220.781 210.123)">
<stop stop-color="#96C3FF"/>
<stop offset="1" stop-color="white" stop-opacity="0"/>
</radialGradient>
<linearGradient id="paint2_linear_932_1502" x1="257.978" y1="0.999999" x2="-4.31122" y2="267.007" gradientUnits="userSpaceOnUse">
<stop offset="0.55" stop-color="#CAD1F3" stop-opacity="0.15"/>
<stop offset="0.774038" stop-color="#334FD7" stop-opacity="0.6"/>
<stop offset="1" stop-color="#334FD7" stop-opacity="0.4"/>
</linearGradient>
</defs>
</svg>
