<svg width="10" height="15" viewBox="0 0 10 15" fill="none" xmlns="http://www.w3.org/2000/svg">
<path d="M5.00065 3.83301C5.44268 3.83301 5.8666 4.0086 6.17916 4.32116C6.49172 4.63372 6.66732 5.05765 6.66732 5.49967C6.66732 5.71854 6.62421 5.93527 6.54045 6.13748C6.45669 6.33969 6.33393 6.52342 6.17916 6.67819C6.0244 6.83295 5.84067 6.95572 5.63846 7.03947C5.43625 7.12323 5.21952 7.16634 5.00065 7.16634C4.55862 7.16634 4.1347 6.99075 3.82214 6.67819C3.50958 6.36563 3.33398 5.9417 3.33398 5.49967C3.33398 5.05765 3.50958 4.63372 3.82214 4.32116C4.1347 4.0086 4.55862 3.83301 5.00065 3.83301ZM5.00065 0.833008C6.23833 0.833008 7.42531 1.32467 8.30048 2.19984C9.17565 3.07501 9.66732 4.262 9.66732 5.49967C9.66732 8.99967 5.00065 14.1663 5.00065 14.1663C5.00065 14.1663 0.333984 8.99967 0.333984 5.49967C0.333984 4.262 0.82565 3.07501 1.70082 2.19984C2.57599 1.32467 3.76297 0.833008 5.00065 0.833008ZM5.00065 2.16634C4.1166 2.16634 3.26875 2.51753 2.64363 3.14265C2.01851 3.76777 1.66732 4.61562 1.66732 5.49967C1.66732 6.16634 1.66732 7.49967 5.00065 11.973C8.33398 7.49967 8.33398 6.16634 8.33398 5.49967C8.33398 4.61562 7.9828 3.76777 7.35767 3.14265C6.73255 2.51753 5.88471 2.16634 5.00065 2.16634Z" fill="#E6E6E6"/>
</svg>
