<svg width="58" height="53" viewBox="0 0 58 53" fill="none" xmlns="http://www.w3.org/2000/svg">
<path d="M49.0632 49.4896C50.0255 49.4897 50.8057 50.2698 50.8057 51.2321C50.8057 52.1943 50.0255 52.9744 49.0632 52.9745H7.88952C6.92725 52.9744 6.14707 52.1943 6.14707 51.2321C6.14707 50.2698 6.92725 49.4897 7.88952 49.4896H49.0632ZM37.4469 44.4559C38.4092 44.4559 39.1894 45.236 39.1894 46.1983C39.1894 47.1606 38.4092 47.9407 37.4469 47.9408H20.3449C19.3826 47.9408 18.6025 47.1606 18.6025 46.1983C18.6025 45.236 19.3826 44.4559 20.3449 44.4559H37.4469ZM30.7997 3.02425C31.762 3.02425 32.5421 3.80437 32.5421 4.7667C32.5421 5.72903 31.762 6.50915 30.7997 6.50915H4.46928V39.1638H52.6124V23.9337C52.6124 22.9714 53.3926 22.1913 54.3549 22.1912C55.3172 22.1912 56.0973 22.9713 56.0973 23.9337V40.9063C56.0973 41.8686 55.3172 42.6488 54.3549 42.6488H2.72683C1.7645 42.6488 0.984375 41.8686 0.984375 40.9063V4.7667C0.984375 3.80437 1.7645 3.02425 2.72683 3.02425H30.7997Z" fill="#899DFF"/>
<path d="M55.3163 0.481878C55.2017 0.36719 55.0656 0.276211 54.9159 0.214139C54.7661 0.152066 54.6055 0.120117 54.4434 0.120117C54.2812 0.120117 54.1207 0.152066 53.9709 0.214139C53.8211 0.276211 53.685 0.36719 53.5704 0.481878L48.3721 5.68022C47.0056 5.26625 45.5855 5.05665 44.1578 5.05819C38.4164 5.05819 33.4386 8.40198 30.9933 13.286C32.0437 15.3814 33.5663 17.2043 35.4412 18.6111L31.3536 22.6986C31.1287 22.9313 31.0042 23.243 31.0068 23.5666C31.0095 23.8902 31.1391 24.1998 31.3678 24.4287C31.5966 24.6577 31.9061 24.7876 32.2297 24.7906C32.5532 24.7935 32.8651 24.6693 33.0979 24.4446L55.3131 2.22947C55.4277 2.11485 55.5187 1.97876 55.5808 1.82898C55.6429 1.67919 55.6748 1.51864 55.6748 1.3565C55.6748 1.19435 55.6429 1.0338 55.5808 0.884015C55.5187 0.734227 55.4277 0.598137 55.3131 0.483523L55.3163 0.481878ZM41.6911 8.34768C42.2072 8.3476 42.7104 8.50933 43.1299 8.81012C43.5493 9.11091 43.8639 9.53561 44.0294 10.0245L40.8996 13.1544C40.3451 12.9669 39.8753 12.5886 39.5739 12.0868C39.2726 11.585 39.1594 10.9925 39.2545 10.415C39.3496 9.83744 39.6468 9.3125 40.0931 8.93384C40.5394 8.55518 41.1058 8.34743 41.6911 8.34768ZM33.8269 13.2844C34.8728 11.6277 36.2932 10.24 37.9737 9.23299C37.7111 9.95501 37.5769 10.7175 37.5772 11.4858C37.5772 12.8977 38.0215 14.2042 38.7784 15.2755L37.2118 16.8421C35.8595 15.8915 34.709 14.6823 33.8269 13.2844ZM50.7417 11.4841C50.7417 10.7864 50.6331 10.1134 50.4307 9.48147L42.1568 17.7554C43.1437 18.0706 44.1911 18.1484 45.2138 17.9824C46.2365 17.8165 47.2055 17.4114 48.0421 16.8003C48.8787 16.1892 49.5592 15.3892 50.0283 14.4654C50.4974 13.5416 50.7418 12.5202 50.7417 11.4841Z" fill="#899DFF"/>
<path d="M52.3354 7.5757L50.5516 9.35949L50.6487 9.42037C52.1955 10.4077 53.507 11.7291 54.4911 13.2842C53.5099 14.8389 52.1979 16.1581 50.6487 17.1479C49.2655 18.0313 47.7165 18.6231 46.0966 18.8871C44.4767 19.1511 42.82 19.0817 41.2278 18.6833L39.2515 20.6596C40.8257 21.225 42.4859 21.5134 44.1586 21.512C49.9 21.512 54.8778 18.1682 57.3231 13.2842C56.1752 10.9867 54.4581 9.02146 52.3354 7.5757Z" fill="#899DFF"/>
</svg>
