<svg width="91" height="91" viewBox="0 0 91 91" fill="none" xmlns="http://www.w3.org/2000/svg">
<path d="M57.3275 31.3528C61.4924 31.5479 64.7738 35.0004 64.701 39.1721C64.628 43.3437 61.2282 46.6787 57.0592 46.7284L57.0591 46.7342L45.7784 46.6555L28.337 40.1792L28.5 30.8438L57.3276 31.3469L57.3275 31.3528Z" fill="white"/>
<path d="M45.3138 46.5384L63.6912 54.5605L63.584 60.7061L51.2255 60.4903L51.2419 59.551C51.2968 56.4039 48.7902 53.8081 45.643 53.7532L45.4097 53.7491L45.2938 60.3868L27.9927 60.0848L28.2344 46.2402L45.3138 46.5384Z" fill="white"/>
<path d="M56.3454 36.2498C57.5739 36.2712 58.5533 37.279 58.532 38.5002C58.5104 39.7211 57.4965 40.6934 56.2682 40.6719C55.04 40.6503 54.0615 39.6433 54.0825 38.4225C54.1038 37.2015 55.117 36.2286 56.3454 36.2498Z" fill="#5F73B9"/>
<path d="M78.0959 33.9273L76.5146 29.9245L76.9118 29.7676L77.0934 30.2275L82.9356 27.9196L82.7539 27.4597L83.1511 27.3028L84.6044 30.9816C84.753 31.3579 84.8773 31.7236 84.9773 32.0787C85.0843 32.4311 85.1135 32.77 85.0648 33.0953C85.0161 33.4206 84.8479 33.7287 84.56 34.0197C84.2722 34.3106 83.8078 34.5826 83.1668 34.8358C82.5258 35.0891 81.996 35.2057 81.5773 35.1859C81.1614 35.1729 80.8232 35.0609 80.5626 34.8497C80.3047 34.6455 80.0895 34.3761 79.9171 34.0415C79.7543 33.7111 79.5986 33.3578 79.45 32.9816L79.0784 32.041L77.9811 32.4745L78.493 33.7704L78.0959 33.9273ZM80.4502 33.3114L84.1081 31.8663L83.4888 30.2987L79.8309 31.7437L80.4502 33.3114ZM84.3964 42.4108L83.1563 42.6254C82.5436 42.7314 82.0314 42.7592 81.6198 42.7088C81.2155 42.6571 80.8841 42.5434 80.6256 42.3676C80.3745 42.1906 80.1761 41.9664 80.0303 41.6951C79.8932 41.43 79.7885 41.1326 79.7163 40.8029C79.6366 40.4746 79.5662 40.1333 79.5049 39.7789C79.4487 39.4541 79.4055 39.1385 79.3753 38.832C79.3389 38.5342 79.3427 38.2485 79.3866 37.9748C79.4391 37.7072 79.5558 37.4589 79.7367 37.2299C79.9249 36.9997 80.2014 36.796 80.5661 36.6189C80.9394 36.4478 81.4324 36.3093 82.0451 36.2033L83.2853 35.9887C83.8979 35.8827 84.4064 35.8556 84.8107 35.9073C85.215 35.959 85.5427 36.0733 85.7938 36.2504C86.0523 36.4261 86.2501 36.6466 86.3872 36.9118C86.533 37.183 86.642 37.4835 86.7142 37.8131C86.7938 38.1415 86.8643 38.4828 86.9256 38.8371C86.9818 39.1619 87.0244 39.4739 87.0533 39.773C87.0909 40.0782 87.0834 40.3645 87.0309 40.6321C86.987 40.9058 86.871 41.1578 86.6827 41.388C86.5019 41.617 86.2284 41.8163 85.8625 41.9861C85.4978 42.1632 85.0091 42.3048 84.3964 42.4108ZM80.4745 40.6375L86.2544 39.6375L85.967 37.9766L80.1872 38.9767L80.4745 40.6375ZM81.8246 49.5704L81.8633 49.0775L79.8554 48.525L80.1542 44.7273L86.9214 44.2455L86.9602 43.7526L87.3859 43.7861L87.132 47.0124L80.643 47.1103L80.5725 48.0065L87.0139 48.5135L86.871 50.3283L80.3829 50.415L80.3124 51.3112L86.7538 51.8182L86.5439 54.4844L86.1182 54.4509L86.1562 53.9692L79.5697 52.1545L79.7857 49.4099L81.8246 49.5704ZM79.3356 54.0897L79.7406 54.2252L79.5837 54.6941L85.5408 56.6868L85.6976 56.2179L86.1026 56.3533L84.2988 61.7456L82.0183 60.9827L82.4354 59.7359L84.2226 59.848L84.5399 58.8995L82.0249 58.0582L81.3441 60.0937L80.758 59.8976L81.4388 57.8622L79.0517 57.0637L78.7345 58.0121L80.2294 58.998L79.8124 60.2448L77.5318 59.482L79.3356 54.0897ZM75.8169 62.5531L77.2756 60.0347L77.6451 60.2487L77.3973 60.6765L82.8329 63.8247L83.0807 63.3969L83.4502 63.6109L81.4678 67.0337C81.2651 67.3838 81.0588 67.7101 80.8488 68.0127C80.6454 68.3191 80.4173 68.5636 80.1644 68.7461C79.9115 68.9286 79.6174 69.0179 79.2819 69.0141C78.953 69.0141 78.5617 68.8826 78.1079 68.6198C77.6865 68.3757 77.3883 68.1208 77.2133 67.855C77.0383 67.5891 76.9544 67.3154 76.9616 67.0339C76.9689 66.7524 77.0305 66.4592 77.1466 66.1541L76.9229 66.0246L76.6695 66.4622C76.5381 66.689 76.4077 66.817 76.2784 66.846C76.1518 66.8852 75.9675 66.8521 75.7256 66.7466L74.2491 66.1122L73.9506 66.6275L73.5811 66.4135L74.9722 64.0117L77.0142 65.1944L77.8589 63.7358L75.8169 62.5531ZM77.7143 65.5999L80.4661 67.1937L81.3109 65.7351L78.5591 64.1413L77.7143 65.5999ZM73.4797 66.4568L73.8002 66.739L73.4734 67.1101L78.1875 71.2616L78.5143 70.8905L78.8347 71.1727L75.0769 75.4399L73.2722 73.8506L74.1411 72.8639L75.7443 73.6618L76.4053 72.9113L74.4151 71.1586L72.9966 72.7693L72.5328 72.3609L73.9512 70.7501L72.0622 69.0866L71.4013 69.8371L72.3955 71.3266L71.5266 72.3133L69.7219 70.724L73.4797 66.4568ZM66.151 73.5089L69.2721 71.1342L69.5307 71.474L69.1372 71.7734L72.9407 76.7724L73.3342 76.4731L73.5928 76.8129L70.4717 79.1876C70.2094 79.3871 69.9522 79.5687 69.7001 79.7323C69.4466 79.9063 69.189 80.0317 68.9273 80.1085C68.6642 80.1957 68.3871 80.2088 68.0961 80.1479C67.8095 80.093 67.5065 79.9422 67.1872 79.6957C66.8619 79.4537 66.511 79.0853 66.1345 78.5905L65.5765 77.8572C65.2 77.3623 64.9363 76.9229 64.7853 76.5389C64.6329 76.1654 64.5684 75.8332 64.5919 75.5424C64.6153 75.2515 64.7019 74.988 64.8516 74.7517C64.9953 74.52 65.1826 74.3022 65.4135 74.0983C65.6429 73.9049 65.8887 73.7085 66.151 73.5089ZM66.0227 74.4537L69.5541 79.095L70.8955 78.0744L67.3642 73.433L66.0227 74.4537ZM59.1006 77.5768L61.4197 76.6883L61.5724 77.0871L61.1422 77.2519L62.4765 83.4674L63.1271 83.2182L63.2799 83.6169L58.5369 85.434L55.1715 79.5394L54.7308 79.7082L54.578 79.3095L57.6211 78.1436L58.371 79.6613L59.7037 79.1508L59.1006 77.5768ZM61.4122 83.6104L59.9248 79.7279L58.6446 80.2184L60.4783 83.9682L61.4122 83.6104ZM55.6509 85.8443L55.716 86.2663L51.4404 86.9264L48.8888 80.7824L48.4334 80.8527L50.3187 87.0995L48.1976 87.427L48.1324 87.0049L48.6211 86.9295L47.5976 80.2995L51.3846 79.7149L53.803 85.8794L54.2583 85.8091L52.5063 79.5418L54.6274 79.2143L54.6926 79.6363L54.2039 79.7118L55.1622 85.9197L55.6509 85.8443ZM42.7728 80.0893L46.6849 80.3648L46.6549 80.7908L46.1616 80.756L45.7204 87.022L46.2136 87.0568L46.1836 87.4827L42.2715 87.2072C41.9427 87.1841 41.6296 87.1508 41.3323 87.1073C41.027 87.0708 40.7507 86.995 40.5035 86.8799C40.2482 86.7718 40.0313 86.5989 39.8528 86.361C39.6738 86.1306 39.5457 85.8174 39.4684 85.4215C39.3837 85.025 39.3632 84.5166 39.4068 83.8964L39.4716 82.9772C39.5153 82.357 39.6071 81.8527 39.7471 81.4646C39.8791 81.0834 40.0498 80.7912 40.2594 80.5882C40.469 80.3852 40.7079 80.2443 40.9763 80.1656C41.2372 80.0863 41.5217 80.0463 41.8296 80.0454C42.1296 80.0515 42.444 80.0662 42.7728 80.0893ZM42.0529 80.7145L41.6432 86.5321L43.3246 86.6505L43.7343 80.8329L42.0529 80.7145ZM34.0496 78.062C34.3172 78.159 34.6066 78.2839 34.9178 78.4365C35.2246 78.5796 35.5275 78.7332 35.8265 78.8973C36.116 79.066 36.3818 79.2341 36.6239 79.4015L35.6494 81.1997L34.2972 80.7096L34.4598 79.2386L33.2871 78.8136L32.9999 79.6059L34.5221 81.9027C34.7388 82.2282 34.8697 82.5705 34.9149 82.9295C34.96 83.2885 34.8933 83.7146 34.7146 84.2076C34.5665 84.6161 34.3752 84.9132 34.1405 85.0991C33.8962 85.2894 33.6255 85.3985 33.3286 85.4264C33.0246 85.4516 32.6972 85.4206 32.3464 85.3333C31.993 85.253 31.6332 85.1465 31.2669 85.0138C30.9007 84.881 30.512 84.7003 30.1009 84.4716C29.6801 84.2474 29.3058 84.0161 28.9779 83.7777L29.9523 81.9795L31.1778 82.4237L30.9729 83.8793L32.0294 84.2622L32.3166 83.4699L30.7944 81.1731C30.5778 80.8476 30.4468 80.5053 30.4017 80.1463C30.3565 79.7873 30.4232 79.3613 30.6019 78.8682C30.75 78.4598 30.9462 78.1603 31.1905 77.97C31.4252 77.7841 31.6945 77.6786 31.9985 77.6533C32.3025 77.628 32.6299 77.659 32.9807 77.7463C33.327 77.8241 33.6833 77.9293 34.0496 78.062ZM30.8179 77.0061L30.6032 77.3752L30.1758 77.1266L27.0173 82.5563L27.4447 82.8049L27.23 83.174L22.3151 80.315L23.5243 78.2364L24.6607 78.8975L24.1888 80.6249L25.0533 81.1278L26.3868 78.8355L24.5315 77.7563L24.8423 77.2221L26.6975 78.3013L27.9632 76.1255L27.0987 75.6226L25.8303 76.8868L24.6939 76.2257L25.903 74.1471L30.8179 77.0061ZM22.1417 71.8145L20.8057 73.363L18.9765 71.7847L19.0646 71.6826C19.4757 71.2062 19.8635 70.8828 20.2281 70.7126C20.587 70.5374 20.9362 70.4825 21.2756 70.5478C21.6094 70.6082 21.9465 70.7507 22.2871 70.9752C22.6219 71.1949 22.9737 71.4638 23.3424 71.7819C23.5806 71.9874 23.8058 72.1966 24.018 72.4094C24.2294 72.6116 24.4022 72.8299 24.5363 73.0643C24.6599 73.2996 24.7216 73.5606 24.7215 73.8474C24.7164 74.1399 24.6264 74.4679 24.4513 74.8314C24.2714 75.2005 23.9783 75.6205 23.5721 76.0912L22.7499 77.0441C22.3437 77.5149 21.9709 77.861 21.6313 78.0826C21.2861 78.2992 20.9659 78.4237 20.6709 78.4561C20.3709 78.4941 20.0895 78.459 19.8265 78.3509C19.5531 78.2436 19.2923 78.0928 19.0443 77.8986C18.7857 77.7052 18.5288 77.4984 18.2736 77.2781C17.9333 76.9845 17.6384 76.6955 17.3891 76.4111C17.1398 76.1267 16.9693 75.8312 16.8777 75.5246C16.786 75.2179 16.8034 74.8767 16.9297 74.5009C17.0561 74.1251 17.3248 73.699 17.7359 73.2225L17.8754 73.0609L19.7046 74.6392L18.3098 76.2557L19.4159 77.21L23.2478 72.7688L22.1417 71.8145ZM18.3437 67.7215L17.3089 66.3909L12.1819 70.3783L10.7056 68.4801L11.0427 68.2179L11.3462 68.6082L14.5661 66.104C15.1161 65.6763 15.5931 65.405 15.9972 65.29C16.3953 65.1797 16.7445 65.1833 17.0448 65.3009C17.3405 65.4126 17.6082 65.5982 17.848 65.8578C18.0891 66.1068 18.3293 66.3851 18.5684 66.6926C18.7708 66.9528 18.9597 67.2139 19.1351 67.4761C19.3118 67.7277 19.4482 67.9824 19.5441 68.2399C19.64 68.4975 19.6732 68.7659 19.6436 69.0451C19.6035 69.323 19.479 69.6144 19.27 69.9193C19.0611 70.2241 18.7349 70.549 18.2913 70.894L15.0714 73.3982L15.375 73.7884L15.0379 74.0506L13.2167 71.7089L18.3437 67.7215ZM14.9276 61.1834L16.1964 63.8027L15.8121 63.9888L15.5965 63.5439L9.94334 66.2823L10.1589 66.7273L9.77459 66.9134L8.05021 63.3536C7.87386 62.9896 7.71915 62.6358 7.58609 62.2924C7.44629 61.9522 7.37165 61.6263 7.36216 61.3146C7.35267 61.0029 7.44347 60.7092 7.63456 60.4335C7.81891 60.161 8.14705 59.9105 8.61899 59.6819C9.05722 59.4696 9.43546 59.3655 9.75371 59.3695C10.072 59.3735 10.3456 59.4573 10.5748 59.621C10.8039 59.7847 11.0123 60.0001 11.1999 60.2671L11.4325 60.1545L11.2121 59.6994C11.0978 59.4634 11.0648 59.2837 11.1133 59.1604C11.1517 59.0336 11.2824 58.8995 11.5053 58.7582L12.8581 57.8907L12.5985 57.3547L12.9828 57.1685L14.1928 59.6664L12.069 60.6952L12.8038 62.2121L14.9276 61.1834ZM11.3409 61.0479L8.4789 62.4343L9.21371 63.9512L12.0757 62.5649L11.3409 61.0479ZM13.0052 57.0602L12.5915 57.1657L12.4693 56.6866L6.38252 58.2385L6.50468 58.7177L6.09091 58.8232L4.68611 53.3135L7.01629 52.7193L7.34111 53.9933L5.77808 54.8673L6.02517 55.8364L8.59491 55.1812L8.06463 53.1015L8.66351 52.9488L9.19378 55.0285L11.6329 54.4066L11.3858 53.4375L9.59508 53.4186L9.27025 52.1447L11.6004 51.5505L13.0052 57.0602ZM11.3118 47.0316L11.5152 50.9481L11.0887 50.9702L11.0631 50.4764L4.79004 50.8021L4.81568 51.2959L4.38924 51.318L4.18591 47.4016C4.16882 47.0724 4.16373 46.7576 4.17064 46.4572C4.16967 46.1497 4.21122 45.8662 4.29527 45.6068C4.37145 45.3403 4.51671 45.1039 4.73105 44.8978C4.93791 44.692 5.23314 44.5266 5.61673 44.4017C5.99993 44.2693 6.502 44.187 7.12295 44.1547L8.04315 44.1069C8.6641 44.0747 9.17574 44.1044 9.57807 44.196C9.97254 44.2806 10.2833 44.4145 10.5104 44.5977C10.7374 44.781 10.9064 45.001 11.0172 45.2578C11.1277 45.5071 11.2021 45.7845 11.2405 46.0901C11.271 46.3886 11.2948 46.7024 11.3118 47.0316ZM10.6036 46.3932L4.77938 46.6956L4.86677 48.3789L10.691 48.0765L10.6036 46.3932ZM11.3524 33.6506C11.7963 33.7593 12.1178 33.9267 12.3169 34.1528C12.5179 34.3717 12.6382 34.6364 12.6779 34.9469C12.712 35.2483 12.6955 35.5836 12.6283 35.9528C12.5628 36.3147 12.482 36.6921 12.3858 37.085L11.4933 40.7306L11.0785 40.629L11.1961 40.1488L5.09478 38.6551L4.97721 39.1353L4.56245 39.0338L5.4282 35.4974C5.5244 35.1045 5.62705 34.7324 5.73617 34.3812C5.84707 34.0227 5.99094 33.7186 6.16778 33.4688C6.33912 33.21 6.56445 33.0299 6.84377 32.9286C7.12486 32.82 7.48734 32.8201 7.93121 32.9287C8.44784 33.0552 8.79334 33.2979 8.9677 33.6568C9.14207 34.0157 9.21768 34.4314 9.19456 34.904L9.28187 34.9253C9.41847 34.6194 9.58254 34.3588 9.77408 34.1435C9.96013 33.9191 10.1838 33.7617 10.445 33.6714C10.7007 33.572 11.0031 33.5651 11.3524 33.6506ZM5.86574 36.3565L8.41979 36.9818L8.78052 35.5083L6.22647 34.883L5.86574 36.3565ZM11.8912 36.2698L9.38083 35.6553L9.0201 37.1287L11.5305 37.7433L11.8912 36.2698ZM10.1091 24.8011L9.90576 25.227L13.8349 28.7597L14.93 29.2827L15.3368 28.4309L15.7221 28.6149L13.5768 33.107L13.1915 32.9229L13.5983 32.0712L12.5031 31.5482L7.28591 30.7128L7.07768 31.1488L6.69235 30.9648L7.98049 28.2675L11.7745 29.0583L12.0505 28.4803L8.65361 26.8581L9.72383 24.6171L10.1091 24.8011ZM21.0987 18.9071C21.439 19.2121 21.6436 19.5113 21.7126 19.8046C21.7867 20.0924 21.768 20.3825 21.6566 20.6751C21.5447 20.957 21.3721 21.245 21.1387 21.5388C20.9104 21.8272 20.6612 22.1219 20.3912 22.4231L17.8857 25.2175L17.5678 24.9325L17.8978 24.5643L13.2209 20.371L12.8909 20.7391L12.5729 20.4541L15.0034 17.7433C15.2735 17.4421 15.5394 17.1624 15.8012 16.9041C16.068 16.6402 16.3382 16.4398 16.6119 16.3028C16.885 16.1553 17.1686 16.1027 17.4627 16.145C17.7618 16.1818 18.0815 16.3527 18.4217 16.6578C18.8177 17.0128 19.008 17.3897 18.9926 17.7884C18.9772 18.1872 18.848 18.5894 18.6048 18.9953L18.6718 19.0553C18.9364 18.8499 19.204 18.6974 19.4744 18.5977C19.7443 18.4875 20.0157 18.4542 20.2886 18.4976C20.561 18.5305 20.831 18.667 21.0987 18.9071ZM14.9844 18.7072L16.9421 20.4626L17.9548 19.3331L15.9971 17.5777L14.9844 18.7072ZM20.3393 21.471L18.415 19.7457L17.4023 20.8752L19.3266 22.6005L20.3393 21.471ZM21.2782 12.4518L20.8928 12.7615L24.8274 17.6581L25.2128 17.3484L25.4802 17.6813L22.8261 19.8139L22.5586 19.4811L22.944 19.1714L19.0095 14.2748L18.6241 14.5845L18.3566 14.2516L21.0108 12.1189L21.2782 12.4518ZM27.7357 8.07269L28.9072 10.0952L27.7695 10.7542L26.7492 9.5531L26.195 9.87413L27.3551 11.3838L29.3769 14.8747L30.1937 14.4016L30.4078 14.7711L26.6836 16.9281L26.4695 16.5586L27.2863 16.0855L25.2644 12.5947L24.5322 10.8372L23.9779 11.1582L24.5458 12.6993L23.4082 13.3582L22.2029 11.2773L27.7357 8.07269ZM34.9792 5.41019L35.7534 7.61556L34.5129 8.05103L33.7342 6.6809L33.1298 6.89306L33.9884 8.59243L35.3246 12.3988L36.2152 12.0862L36.3566 12.4891L32.2958 13.9146L32.1543 13.5117L33.045 13.1991L31.7088 9.39266L31.3167 7.52952L30.7124 7.74167L30.9833 9.36152L29.7428 9.79699L28.9462 7.528L34.9792 5.41019ZM37.6153 12.1125L37.5499 11.6906L38.0385 11.6148L37.0762 5.40746L36.5876 5.4832L36.5222 5.06123L42.1411 4.19025L42.5094 6.5666L41.2102 6.76799L40.4899 5.12848L39.5016 5.28168L39.9078 7.90232L42.0287 7.57355L42.1234 8.1843L40.0025 8.51307L40.388 11.0005L41.3763 10.8473L41.5665 9.06661L42.8658 8.86522L43.2341 11.2416L37.6153 12.1125ZM46.5452 11.4449C46.2606 11.4377 45.9466 11.411 45.603 11.3649C45.2668 11.3264 44.9308 11.2767 44.5951 11.2158C44.2671 11.1476 43.9618 11.0724 43.6791 10.9904L44.0334 8.97599L45.4713 9.01229L45.7832 10.459L47.0302 10.4904L47.0514 9.64792L44.8798 7.95198C44.5712 7.71188 44.3385 7.42874 44.1819 7.10255C44.0252 6.77637 43.9535 6.35116 43.9668 5.82693C43.9777 5.39257 44.0651 5.05006 44.2288 4.79941C44.4001 4.54145 44.6222 4.35222 44.895 4.23171C45.1754 4.11139 45.4957 4.03705 45.8561 4.00867C46.2167 3.97281 46.5918 3.9598 46.9812 3.96963C47.3706 3.97946 47.7965 4.02768 48.259 4.11428C48.7291 4.19359 49.1574 4.29433 49.544 4.41649L49.1897 6.43087L47.8866 6.39798L47.6196 4.95244L46.4962 4.92408L46.475 5.76659L48.6466 7.46254C48.9552 7.70264 49.1879 7.98578 49.3445 8.31196C49.5011 8.63815 49.5728 9.06335 49.5596 9.58758C49.5487 10.0219 49.4575 10.3681 49.2861 10.6261C49.1224 10.8767 48.9004 11.0622 48.6201 11.1825C48.3398 11.3028 48.0194 11.3772 47.659 11.4056C47.3059 11.4416 46.9346 11.4547 46.5452 11.4449ZM51.453 4.89328L51.5491 4.47724L55.7644 5.4511L55.8537 12.1032L56.3026 12.2069L56.8702 5.70658L58.9614 6.18972L58.8653 6.60577L58.3835 6.49447L56.8734 13.0308L53.1399 12.1683L53.182 5.54647L52.7331 5.44276L52.0341 11.9128L49.9429 11.4296L50.039 11.0136L50.5208 11.1249L51.9348 5.00458L51.453 4.89328ZM65.3341 12.2647L64.7932 13.4011C64.526 13.9626 64.2529 14.3968 63.9741 14.7038C63.6984 15.004 63.4142 15.2089 63.1215 15.3184C62.8319 15.4212 62.5343 15.4538 62.2287 15.4162C61.933 15.375 61.6298 15.2887 61.3189 15.1574C61.0049 15.0328 60.6855 14.8932 60.3608 14.7387C60.0632 14.597 59.7806 14.45 59.5129 14.2977C59.2488 14.1554 59.0176 13.9873 58.8195 13.7934C58.6314 13.596 58.4961 13.3574 58.4136 13.0775C58.3343 12.7909 58.3277 12.4476 58.3936 12.0475C58.4696 11.6439 58.6411 11.1614 58.9084 10.6L59.4493 9.46363C59.7165 8.9022 59.988 8.47137 60.2636 8.17115C60.5393 7.87092 60.8219 7.66942 61.1114 7.56663C61.4041 7.45707 61.6983 7.42288 61.994 7.46406C62.2997 7.50169 62.6079 7.58619 62.9188 7.71754C63.2328 7.84214 63.5522 7.98171 63.8768 8.13625C64.1745 8.27792 64.4537 8.42329 64.7146 8.57237C64.9855 8.7179 65.2151 8.88937 65.4032 9.08678C65.6013 9.28064 65.74 9.52088 65.8193 9.80752C65.9018 10.0874 65.9066 10.4257 65.8339 10.8226C65.768 11.2226 65.6014 11.7033 65.3341 12.2647ZM61.6217 14.4428L64.1427 9.14641L62.6208 8.42198L60.0998 13.7183L61.6217 14.4428ZM66.205 18.0671L63.8874 16.3067L64.1456 15.9666L64.5394 16.2657L68.3388 11.2635L67.9451 10.9645L68.2034 10.6244L71.3532 13.0169C71.6754 13.2616 71.9735 13.5069 72.2477 13.7528C72.5264 13.9927 72.7406 14.2495 72.8903 14.5231C73.04 14.7967 73.092 15.0997 73.0466 15.432C73.0056 15.7584 72.8266 16.1304 72.5094 16.548C72.2148 16.9358 71.9248 17.1999 71.6393 17.3405C71.3537 17.4811 71.0718 17.5304 70.7933 17.4882C70.5149 17.4461 70.2316 17.3484 69.9433 17.1954L69.787 17.4012L70.1897 17.707C70.3985 17.8656 70.5092 18.0109 70.5219 18.1428C70.5451 18.2733 70.4893 18.452 70.3546 18.6789L69.5415 20.0652L70.0158 20.4254L69.7575 20.7654L67.5473 19.0866L68.9746 17.2074L67.6323 16.1879L66.205 18.0671ZM69.464 16.5632L71.3875 14.0308L70.0452 13.0112L68.1217 15.5436L69.464 16.5632ZM72.1999 21.9603C71.9607 22.1871 71.7635 22.3329 71.6081 22.3977C71.4579 22.4679 71.3175 22.4669 71.1869 22.3945C71.0563 22.3222 70.8983 22.1882 70.7127 21.9925C70.5064 21.7751 70.3629 21.5912 70.2821 21.4407C70.2065 21.2956 70.2051 21.1472 70.278 20.9954C70.3509 20.8437 70.5069 20.6544 70.7461 20.4276C70.9906 20.1956 71.1906 20.0472 71.346 19.9824C71.5068 19.9124 71.6577 19.9191 71.7986 20.0023C71.9446 20.0909 72.1233 20.2467 72.3347 20.4695C72.5151 20.6598 72.638 20.822 72.7033 20.9562C72.7687 21.0904 72.7596 21.2332 72.6761 21.3847C72.6032 21.5364 72.4445 21.7283 72.1999 21.9603Z" fill="white"/>
</svg>
