<svg width="165" height="165" viewBox="0 0 165 165" fill="none" xmlns="http://www.w3.org/2000/svg">
<path d="M103.407 56.4985C110.919 56.8513 116.837 63.082 116.706 70.6068C116.574 78.1315 110.443 84.1509 102.923 84.2413L102.923 84.2492L82.5734 84.1069L51.1123 72.4242L51.4062 55.584L103.407 56.4917L103.407 56.4985Z" fill="black"/>
<path d="M81.7307 83.8932L114.882 98.3637L114.688 109.449L92.3976 109.06L92.4271 107.369C92.5262 101.692 88.0039 97.0087 82.3268 96.9095L81.906 96.9022L81.697 108.873L50.486 108.328L50.9219 83.3555L81.7307 83.8932Z" fill="black"/>
<path d="M101.634 65.3279C103.85 65.3667 105.615 67.1837 105.577 69.3865C105.538 71.5892 103.711 73.3437 101.495 73.3052C99.279 73.2664 97.5133 71.4491 97.5515 69.2465C97.5899 67.0436 99.4181 65.2893 101.634 65.3279Z" fill="white"/>
<path d="M140.878 61.1495L138.026 53.929L138.742 53.646L139.07 54.4755L149.608 50.3123L149.281 49.4828L149.997 49.1998L152.619 55.8359C152.887 56.5146 153.111 57.1743 153.291 57.8149C153.484 58.4506 153.537 59.0619 153.449 59.6487C153.361 60.2356 153.058 60.7914 152.539 61.3161C152.019 61.8409 151.182 62.3316 150.025 62.7884C148.869 63.2452 147.913 63.4557 147.158 63.4198C146.408 63.3965 145.798 63.1944 145.328 62.8135C144.862 62.4451 144.474 61.9591 144.163 61.3555C143.87 60.7595 143.589 60.1222 143.321 59.4435L142.65 57.7468L140.671 58.5288L141.594 60.8665L140.878 61.1495ZM145.125 60.0384L151.723 57.4318L150.606 54.6039L144.008 57.2106L145.125 60.0384ZM152.243 76.4528L150.006 76.8398C148.901 77.0311 147.977 77.0812 147.235 76.9903C146.505 76.897 145.908 76.6919 145.441 76.3748C144.988 76.0555 144.63 75.6511 144.367 75.1618C144.12 74.6834 143.931 74.147 143.801 73.5524C143.657 72.9601 143.53 72.3443 143.42 71.7052C143.318 71.1193 143.24 70.5499 143.186 69.9971C143.12 69.4598 143.127 68.9444 143.206 68.4507C143.301 67.968 143.512 67.5201 143.838 67.1071C144.177 66.6918 144.676 66.3244 145.334 66.0048C146.007 65.6963 146.897 65.4464 148.002 65.2552L150.239 64.8681C151.344 64.6769 152.261 64.6279 152.991 64.7212C153.72 64.8144 154.311 65.0207 154.764 65.3401C155.23 65.6571 155.587 66.0548 155.835 66.5331C156.098 67.0225 156.294 67.5645 156.424 68.1591C156.568 68.7514 156.695 69.3671 156.806 70.0062C156.907 70.5921 156.984 71.1548 157.036 71.6944C157.104 72.2449 157.09 72.7616 156.996 73.2442C156.917 73.7379 156.707 74.1924 156.368 74.6078C156.041 75.0208 155.548 75.3804 154.888 75.6866C154.23 76.0062 153.349 76.2616 152.243 76.4528ZM145.169 73.254L155.595 71.45L155.077 68.454L144.65 70.258L145.169 73.254ZM147.604 89.3677L147.674 88.4785L144.052 87.4818L144.591 80.6314L156.798 79.7621L156.868 78.873L157.636 78.9334L157.178 84.7533L145.473 84.93L145.346 86.5466L156.965 87.4611L156.707 90.7348L145.004 90.8913L144.876 92.5079L156.496 93.4224L156.117 98.2319L155.349 98.1714L155.418 97.3025L143.537 94.0291L143.926 89.0782L147.604 89.3677ZM143.114 97.52L143.845 97.7644L143.562 98.6102L154.308 102.205L154.591 101.359L155.321 101.603L152.067 111.33L147.954 109.954L148.706 107.705L151.93 107.907L152.502 106.196L147.966 104.679L146.737 108.35L145.68 107.997L146.908 104.325L142.602 102.885L142.03 104.596L144.727 106.374L143.974 108.623L139.861 107.247L143.114 97.52ZM136.767 112.787L139.398 108.244L140.065 108.63L139.618 109.402L149.423 115.081L149.87 114.309L150.537 114.695L146.961 120.869C146.595 121.501 146.223 122.089 145.844 122.635C145.477 123.188 145.066 123.629 144.609 123.958C144.153 124.287 143.623 124.449 143.018 124.442C142.424 124.442 141.718 124.205 140.9 123.73C140.14 123.29 139.602 122.83 139.286 122.351C138.97 121.871 138.819 121.378 138.832 120.87C138.845 120.362 138.956 119.833 139.166 119.283L138.762 119.049L138.305 119.838C138.068 120.248 137.833 120.478 137.6 120.531C137.371 120.601 137.039 120.542 136.602 120.351L133.939 119.207L133.4 120.137L132.734 119.751L135.243 115.418L138.927 117.551L140.451 114.92L136.767 112.787ZM140.19 118.283L145.154 121.158L146.678 118.527L141.714 115.652L140.19 118.283ZM132.551 119.829L133.129 120.338L132.54 121.007L141.043 128.496L141.633 127.827L142.211 128.336L135.432 136.033L132.177 133.166L133.744 131.386L136.636 132.826L137.828 131.472L134.238 128.31L131.68 131.216L130.843 130.479L133.402 127.573L129.994 124.572L128.802 125.926L130.595 128.613L129.028 130.393L125.772 127.526L132.551 119.829ZM119.331 132.55L124.961 128.266L125.427 128.879L124.718 129.419L131.579 138.437L132.289 137.897L132.755 138.51L127.125 142.793C126.652 143.153 126.188 143.481 125.733 143.776C125.276 144.09 124.811 144.316 124.339 144.455C123.865 144.612 123.365 144.636 122.84 144.526C122.323 144.427 121.776 144.155 121.2 143.71C120.613 143.274 119.98 142.609 119.301 141.716L118.295 140.394C117.616 139.501 117.14 138.708 116.867 138.016C116.593 137.342 116.476 136.743 116.519 136.218C116.561 135.693 116.717 135.218 116.987 134.792C117.246 134.374 117.584 133.981 118.001 133.613C118.414 133.264 118.858 132.91 119.331 132.55ZM119.1 134.254L125.47 142.627L127.89 140.785L121.519 132.413L119.1 134.254ZM106.613 139.888L110.796 138.285L111.072 139.004L110.296 139.302L112.703 150.514L113.876 150.064L114.152 150.783L105.596 154.061L99.5254 143.428L98.7304 143.733L98.4548 143.013L103.944 140.91L105.297 143.648L107.701 142.727L106.613 139.888ZM110.783 150.772L108.1 143.768L105.79 144.653L109.098 151.417L110.783 150.772ZM100.39 154.801L100.508 155.563L92.7949 156.753L88.192 145.67L87.3707 145.797L90.7715 157.066L86.9452 157.656L86.8277 156.895L87.7092 156.759L85.863 144.799L92.6942 143.745L97.0566 154.865L97.878 154.738L94.7175 143.432L98.5438 142.842L98.6613 143.603L97.7799 143.739L99.5086 154.937L100.39 154.801ZM77.1596 144.42L84.2165 144.917L84.1624 145.685L83.2727 145.623L82.4767 156.926L83.3664 156.989L83.3123 157.757L76.2554 157.26C75.6623 157.218 75.0975 157.158 74.5612 157.08C74.0104 157.014 73.512 156.877 73.066 156.67C72.6056 156.475 72.2144 156.163 71.8924 155.733C71.5694 155.318 71.3383 154.753 71.1989 154.039C71.0461 153.323 71.0091 152.406 71.0879 151.288L71.2046 149.63C71.2834 148.511 71.4491 147.601 71.7016 146.901C71.9397 146.213 72.2477 145.686 72.6258 145.32C73.0038 144.954 73.4349 144.7 73.919 144.558C74.3897 144.415 74.9028 144.342 75.4583 144.341C75.9994 144.352 76.5665 144.378 77.1596 144.42ZM75.861 145.548L75.1219 156.042L78.155 156.256L78.894 145.761L75.861 145.548ZM61.424 140.763C61.9067 140.938 62.4288 141.163 62.9902 141.439C63.5435 141.697 64.0899 141.974 64.6294 142.27C65.1515 142.574 65.631 142.877 66.0677 143.179L64.3099 146.423L61.8706 145.539L62.1639 142.886L60.0486 142.119L59.5305 143.548L62.2763 147.691C62.6672 148.279 62.9033 148.896 62.9848 149.544C63.0663 150.191 62.9459 150.96 62.6236 151.849C62.3565 152.586 62.0113 153.122 61.5879 153.457C61.1472 153.801 60.6591 153.997 60.1234 154.048C59.5751 154.093 58.9844 154.037 58.3516 153.88C57.7141 153.735 57.0651 153.543 56.4044 153.303C55.7438 153.064 55.0426 152.738 54.301 152.325C53.5421 151.921 52.8668 151.504 52.2752 151.074L54.0331 147.83L56.2437 148.631L55.8741 151.257L57.7798 151.948L58.2979 150.518L55.5521 146.375C55.1612 145.788 54.9251 145.171 54.8436 144.523C54.7621 143.875 54.8825 143.107 55.2048 142.217C55.4719 141.481 55.8258 140.94 56.2665 140.597C56.6898 140.262 57.1757 140.071 57.724 140.026C58.2724 139.98 58.863 140.036 59.4959 140.194C60.1206 140.334 60.7633 140.524 61.424 140.763ZM55.5944 138.858L55.2071 139.524L54.4362 139.076L48.7387 148.87L49.5097 149.319L49.1223 149.985L40.2565 144.827L42.4376 141.078L44.4876 142.27L43.6364 145.386L45.1958 146.293L47.6012 142.158L44.2546 140.212L44.8152 139.248L48.1618 141.195L50.4448 137.27L48.8854 136.363L46.5974 138.643L44.5474 137.451L46.7286 133.701L55.5944 138.858ZM39.9437 129.494L37.5337 132.287L34.2341 129.44L34.393 129.256C35.1345 128.396 35.8341 127.813 36.4918 127.506C37.1392 127.19 37.7691 127.091 38.3814 127.208C38.9834 127.317 39.5916 127.574 40.2059 127.98C40.81 128.376 41.4445 128.861 42.1096 129.435C42.5393 129.805 42.9455 130.183 43.3283 130.566C43.7097 130.931 44.0213 131.325 44.2633 131.748C44.4862 132.172 44.5975 132.643 44.5973 133.161C44.5882 133.688 44.4258 134.28 44.11 134.936C43.7853 135.601 43.2567 136.359 42.5239 137.208L41.0409 138.927C40.3081 139.776 39.6355 140.401 39.023 140.8C38.4003 141.191 37.8227 141.416 37.2905 141.474C36.7494 141.543 36.2417 141.479 35.7675 141.284C35.2741 141.091 34.8038 140.819 34.3564 140.468C33.89 140.12 33.4265 139.746 32.9661 139.349C32.3522 138.82 31.8204 138.298 31.3706 137.785C30.9208 137.272 30.6133 136.739 30.448 136.186C30.2827 135.633 30.314 135.017 30.542 134.339C30.7699 133.662 31.2546 132.893 31.9962 132.033L32.2478 131.742L35.5474 134.589L33.0315 137.505L35.0266 139.226L41.9389 131.215L39.9437 129.494ZM33.0925 122.11L31.2259 119.71L21.9774 126.903L19.3144 123.479L19.9224 123.006L20.4699 123.71L26.2782 119.192C27.2703 118.421 28.1308 117.931 28.8597 117.724C29.5779 117.525 30.2079 117.532 30.7495 117.744C31.2828 117.945 31.7658 118.28 32.1984 118.748C32.6334 119.197 33.0665 119.699 33.4979 120.254C33.863 120.723 34.2037 121.195 34.5201 121.668C34.8389 122.121 35.0849 122.581 35.2579 123.045C35.4309 123.51 35.4907 123.994 35.4374 124.498C35.3651 124.999 35.1405 125.525 34.7635 126.075C34.3866 126.625 33.7981 127.211 32.9981 127.833L27.1898 132.35L27.7374 133.054L27.1293 133.527L23.8441 129.303L33.0925 122.11ZM26.9302 110.316L29.219 115.041L28.5257 115.377L28.1369 114.574L17.9393 119.514L18.3281 120.317L17.6349 120.652L14.5243 114.231C14.2062 113.574 13.9271 112.936 13.6871 112.317C13.4349 111.703 13.3002 111.115 13.2831 110.553C13.266 109.991 13.4298 109.461 13.7745 108.963C14.107 108.472 14.699 108.02 15.5503 107.608C16.3408 107.225 17.0231 107.037 17.5972 107.044C18.1713 107.051 18.665 107.203 19.0783 107.498C19.4916 107.793 19.8675 108.182 20.206 108.663L20.6255 108.46L20.2279 107.639C20.0217 107.214 19.9623 106.889 20.0497 106.667C20.1191 106.438 20.3548 106.196 20.7569 105.941L23.1971 104.377L22.7288 103.41L23.422 103.074L25.6047 107.58L21.7737 109.436L23.0993 112.172L26.9302 110.316ZM20.4603 110.072L15.2976 112.573L16.6231 115.309L21.7858 112.808L20.4603 110.072ZM23.4626 102.879L22.7162 103.069L22.4958 102.205L11.516 105.004L11.7364 105.868L10.99 106.059L8.45589 96.1199L12.6593 95.0481L13.2452 97.3462L10.4257 98.9228L10.8714 100.671L15.5069 99.489L14.5503 95.7374L15.6306 95.462L16.5872 99.2136L20.987 98.0918L20.5412 96.3436L17.3111 96.3096L16.7251 94.0115L20.9285 92.9397L23.4626 102.879ZM20.4079 84.788L20.7747 91.8528L20.0054 91.8928L19.9592 91.0021L8.64334 91.5895L8.68958 92.4802L7.92035 92.5202L7.55356 85.4554C7.52273 84.8616 7.51355 84.2937 7.52601 83.7518C7.52427 83.1971 7.59922 82.6858 7.75083 82.2178C7.88825 81.7371 8.15029 81.3107 8.53693 80.9388C8.91008 80.5677 9.44263 80.2694 10.1346 80.044C10.8258 79.8051 11.7315 79.6566 12.8516 79.5985L14.5115 79.5123C15.6317 79.4541 16.5546 79.5077 17.2804 79.673C17.9919 79.8255 18.5525 80.067 18.9621 80.3976C19.3717 80.7282 19.6764 81.1251 19.8764 81.5883C20.0757 82.038 20.2099 82.5385 20.2791 83.0897C20.3341 83.6281 20.377 84.1942 20.4079 84.788ZM19.1302 83.6365L8.62411 84.1819L8.78176 87.2184L19.2879 86.6729L19.1302 83.6365ZM20.4811 60.6504C21.2817 60.8464 21.8617 61.1484 22.221 61.5563C22.5834 61.9511 22.8004 62.4286 22.872 62.9887C22.9337 63.5325 22.9038 64.1373 22.7825 64.8033C22.6645 65.4561 22.5187 66.1369 22.3451 66.8457L20.7352 73.4218L19.987 73.2386L20.1991 72.3723L9.19307 69.6779L8.98098 70.5442L8.23281 70.361L9.79452 63.9818C9.96804 63.273 10.1532 62.6018 10.3501 61.9683C10.5501 61.3217 10.8096 60.773 11.1286 60.3225C11.4377 59.8555 11.8442 59.5307 12.348 59.348C12.8551 59.1521 13.509 59.1522 14.3096 59.3482C15.2416 59.5764 15.8648 60.0142 16.1793 60.6616C16.4939 61.309 16.6303 62.0589 16.5886 62.9113L16.7461 62.9498C16.9925 62.398 17.2884 61.9279 17.6339 61.5394C17.9696 61.1346 18.3729 60.8508 18.8441 60.6879C19.3054 60.5087 19.851 60.4962 20.4811 60.6504ZM10.5838 65.5315L15.191 66.6594L15.8417 64.0014L11.2345 62.8735L10.5838 65.5315ZM21.453 65.3751L16.9246 64.2665L16.2739 66.9245L20.8023 68.0331L21.453 65.3751ZM18.2383 44.6871L17.8715 45.4553L24.9591 51.8277L26.9345 52.7712L27.6683 51.2347L28.3634 51.5666L24.4936 59.6697L23.7985 59.3378L24.5323 57.8013L22.5568 56.8579L13.1456 55.351L12.77 56.1375L12.0749 55.8055L14.3985 50.94L21.2424 52.3665L21.7404 51.3239L15.6127 48.3975L17.5433 44.3551L18.2383 44.6871ZM38.0622 34.0549C38.676 34.6052 39.0451 35.1449 39.1696 35.674C39.3032 36.193 39.2695 36.7164 39.0686 37.2441C38.8667 37.7528 38.5553 38.2721 38.1344 38.8023C37.7225 39.3224 37.273 39.8541 36.7859 40.3974L32.2663 45.4382L31.6928 44.924L32.2882 44.2599L23.8516 36.6956L23.2562 37.3597L22.6827 36.8455L27.067 31.9556C27.5542 31.4123 28.0339 30.9077 28.5061 30.4417C28.9873 29.9657 29.4748 29.6042 29.9685 29.3572C30.4612 29.0911 30.9728 28.9962 31.5033 29.0725C32.0428 29.1388 32.6195 29.4471 33.2332 29.9974C33.9476 30.6379 34.2909 31.3178 34.2631 32.037C34.2353 32.7563 34.0021 33.4819 33.5636 34.214L33.6843 34.3222C34.1617 33.9517 34.6443 33.6766 35.1322 33.4969C35.619 33.2981 36.1085 33.2379 36.6008 33.3163C37.0921 33.3757 37.5793 33.6219 38.0622 34.0549ZM27.0326 33.6944L30.5642 36.8608L32.391 34.8234L28.8594 31.6569L27.0326 33.6944ZM36.6923 38.6799L33.2211 35.5676L31.3943 37.6051L34.8655 40.7174L36.6923 38.6799ZM38.386 22.4104L37.6907 22.969L44.7882 31.8019L45.4834 31.2433L45.9659 31.8437L41.1781 35.6908L40.6957 35.0904L41.3909 34.5317L34.2935 25.6988L33.5982 26.2575L33.1157 25.657L37.9035 21.8099L38.386 22.4104ZM50.0345 14.511L52.1477 18.1594L50.0955 19.3481L48.2549 17.1815L47.2551 17.7606L49.3478 20.4839L52.9951 26.7809L54.4685 25.9275L54.8545 26.5941L48.1365 30.4851L47.7505 29.8186L49.2239 28.9652L45.5766 22.6682L44.2557 19.4979L43.2559 20.077L44.2804 22.8568L42.2281 24.0454L40.054 20.2918L50.0345 14.511ZM63.1009 9.70818L64.4974 13.6864L62.2597 14.4719L60.855 12.0004L59.7648 12.3831L61.3135 15.4486L63.7238 22.3148L65.3304 21.7508L65.5856 22.4776L58.2603 25.0491L58.0052 24.3223L59.6117 23.7583L57.2014 16.8921L56.4942 13.5312L55.404 13.9139L55.8927 16.8359L53.655 17.6214L52.2182 13.5285L63.1009 9.70818ZM67.856 21.7984L67.738 21.0372L68.6194 20.9006L66.8837 9.70326L66.0023 9.83988L65.8843 9.0787L76.02 7.50755L76.6845 11.7942L74.3408 12.1575L73.0414 9.20001L71.2586 9.47636L71.9914 14.2037L75.8174 13.6106L75.9881 14.7123L72.1622 15.3054L72.8577 19.7923L74.6405 19.516L74.9836 16.3039L77.3272 15.9406L77.9917 20.2273L67.856 21.7984ZM83.9645 20.594C83.4511 20.5811 82.8846 20.533 82.2649 20.4497C81.6583 20.3804 81.0523 20.2907 80.4467 20.1808C79.8551 20.0577 79.3042 19.9222 78.7943 19.7741L79.4335 16.1405L82.0272 16.2059L82.59 18.8155L84.8392 18.8723L84.8776 17.3525L80.9603 14.2932C80.4035 13.8601 79.9838 13.3494 79.7012 12.761C79.4187 12.1726 79.2894 11.4056 79.3132 10.4599C79.333 9.6764 79.4905 9.05856 79.7858 8.6064C80.0949 8.14108 80.4956 7.79973 80.9877 7.58234C81.4933 7.3653 82.0712 7.23118 82.7214 7.18C83.3719 7.11531 84.0483 7.09183 84.7508 7.10955C85.4533 7.12728 86.2216 7.21426 87.0558 7.37049C87.9038 7.51355 88.6765 7.69526 89.3738 7.91562L88.7347 11.5493L86.3841 11.49L85.9024 8.88241L83.876 8.83128L83.8377 10.3511L87.755 13.4103C88.3118 13.8434 88.7315 14.3542 89.014 14.9426C89.2966 15.531 89.4259 16.298 89.4021 17.2436C89.3823 18.0272 89.2178 18.6516 88.9087 19.1169C88.6134 19.5691 88.213 19.9037 87.7073 20.1207C87.2017 20.3378 86.6238 20.4719 85.9736 20.5231C85.3367 20.5881 84.6669 20.6117 83.9645 20.594ZM92.8169 8.77565L92.9903 8.02515L100.594 9.78181L100.755 21.7814L101.565 21.9685L102.589 10.2426L106.361 11.1141L106.188 11.8646L105.319 11.6639L102.595 23.4547L95.86 21.8988L95.9358 9.95388L95.1261 9.76681L93.8652 21.4379L90.093 20.5664L90.2663 19.8159L91.1354 20.0167L93.6859 8.97641L92.8169 8.77565ZM117.857 22.0725L116.881 24.1225C116.399 25.1352 115.906 25.9185 115.403 26.4722C114.906 27.0138 114.393 27.3834 113.865 27.5811C113.343 27.7665 112.806 27.8253 112.255 27.7574C111.722 27.6831 111.175 27.5275 110.614 27.2906C110.047 27.0658 109.471 26.8141 108.886 26.5353C108.349 26.2797 107.839 26.0146 107.356 25.7399C106.879 25.4832 106.463 25.18 106.105 24.8303C105.766 24.4742 105.522 24.0437 105.373 23.5389C105.23 23.0218 105.218 22.4025 105.337 21.6809C105.474 20.9528 105.783 20.0825 106.265 19.0697L107.241 17.0198C107.723 16.007 108.213 15.2299 108.71 14.6883C109.207 14.1467 109.717 13.7832 110.239 13.5978C110.767 13.4002 111.298 13.3385 111.831 13.4128C112.383 13.4807 112.939 13.6331 113.5 13.87C114.066 14.0948 114.642 14.3465 115.228 14.6253C115.765 14.8808 116.269 15.1431 116.739 15.412C117.228 15.6745 117.642 15.9838 117.981 16.3399C118.339 16.6896 118.589 17.123 118.732 17.64C118.881 18.1449 118.889 18.7552 118.758 19.471C118.639 20.1926 118.339 21.0598 117.857 22.0725ZM111.16 26.0015L115.708 16.4475L112.962 15.1407L108.415 24.6948L111.16 26.0015ZM119.428 32.5392L115.247 29.3637L115.713 28.7503L116.423 29.2898L123.277 20.2664L122.566 19.7269L123.032 19.1135L128.714 23.4292C129.295 23.8706 129.833 24.3131 130.328 24.7566C130.831 25.1894 131.217 25.6526 131.487 26.1461C131.757 26.6397 131.851 27.1862 131.769 27.7857C131.695 28.3745 131.372 29.0455 130.8 29.7988C130.269 30.4983 129.746 30.9748 129.23 31.2285C128.715 31.4821 128.207 31.5709 127.705 31.4949C127.202 31.4188 126.691 31.2428 126.171 30.9666L125.889 31.3379L126.616 31.8896C126.992 32.1757 127.192 32.4377 127.215 32.6757C127.257 32.9111 127.156 33.2335 126.913 33.6428L125.447 36.1434L126.302 36.7932L125.836 37.4066L121.849 34.3783L124.424 30.9884L122.002 29.1494L119.428 32.5392ZM125.307 29.8262L128.776 25.258L126.355 23.419L122.885 27.9871L125.307 29.8262ZM130.242 39.562C129.811 39.9712 129.455 40.2343 129.174 40.3511C128.903 40.4778 128.65 40.4759 128.415 40.3454C128.179 40.2149 127.894 39.9732 127.559 39.6202C127.187 39.2281 126.928 38.8962 126.783 38.6247C126.646 38.363 126.644 38.0953 126.775 37.8216C126.907 37.5478 127.188 37.2064 127.619 36.7972C128.061 36.3787 128.421 36.111 128.702 35.9942C128.992 35.868 129.264 35.88 129.518 36.0301C129.781 36.19 130.104 36.4709 130.485 36.8729C130.811 37.216 131.032 37.5087 131.15 37.7507C131.268 37.9928 131.252 38.2505 131.101 38.5237C130.97 38.7974 130.683 39.1436 130.242 39.562Z" fill="black"/>
</svg>
