<svg width="278" height="292" viewBox="0 0 278 292" fill="none" xmlns="http://www.w3.org/2000/svg">
<g filter="url(#filter0_n_932_1504)">
<rect x="1" y="1" width="276" height="290" rx="100" fill="url(#paint0_radial_932_1504)"/>
<rect x="1" y="1" width="276" height="290" rx="100" fill="url(#paint1_radial_932_1504)"/>
<rect x="1" y="1" width="276" height="290" rx="100" stroke="url(#paint2_linear_932_1504)" stroke-width="1.67742"/>
</g>
<g filter="url(#filter1_i_932_1504)">
<path d="M134.505 149.257L214.173 182.391V208.838H160.989V204.804C160.989 191.26 150.012 180.278 136.468 180.277H135.46V208.838H61V149.257H134.505Z" stroke="white" stroke-width="10.9733"/>
<path fill-rule="evenodd" clip-rule="evenodd" d="M185.062 83.0213C202.993 83.5503 217.368 98.1561 217.369 116.107C217.367 134.058 202.992 148.665 185.062 149.194V149.22L136.522 149.727L61 123.178V83H185.062V83.0213ZM181.199 104.148C175.911 104.148 171.625 108.408 171.625 113.663C171.627 118.918 175.912 123.178 181.199 123.178C186.484 123.177 190.771 118.917 190.772 113.663C190.772 108.408 186.485 104.149 181.199 104.148Z" stroke="white" stroke-width="10.9733"/>
</g>
<defs>
<filter id="filter0_n_932_1504" x="0.162109" y="0.161133" width="277.676" height="291.678" filterUnits="userSpaceOnUse" color-interpolation-filters="sRGB">
<feFlood flood-opacity="0" result="BackgroundImageFix"/>
<feBlend mode="normal" in="SourceGraphic" in2="BackgroundImageFix" result="shape"/>
<feTurbulence type="fractalNoise" baseFrequency="1 1" stitchTiles="stitch" numOctaves="3" result="noise" seed="3870" />
<feColorMatrix in="noise" type="luminanceToAlpha" result="alphaNoise" />
<feComponentTransfer in="alphaNoise" result="coloredNoise1">
<feFuncA type="discrete" tableValues="1 1 1 1 1 1 1 1 1 1 1 1 1 1 1 1 1 1 1 1 1 1 1 1 1 1 1 1 1 1 1 1 1 1 1 1 1 1 1 1 1 1 1 1 1 1 1 1 1 1 1 0 0 0 0 0 0 0 0 0 0 0 0 0 0 0 0 0 0 0 0 0 0 0 0 0 0 0 0 0 0 0 0 0 0 0 0 0 0 0 0 0 0 0 0 0 0 0 0 0 "/>
</feComponentTransfer>
<feComposite operator="in" in2="shape" in="coloredNoise1" result="noise1Clipped" />
<feFlood flood-color="rgba(255, 255, 255, 0.25)" result="color1Flood" />
<feComposite operator="in" in2="noise1Clipped" in="color1Flood" result="color1" />
<feMerge result="effect1_noise_932_1504">
<feMergeNode in="shape" />
<feMergeNode in="color1" />
</feMerge>
</filter>
<filter id="filter1_i_932_1504" x="55.5137" y="77.5137" width="167.342" height="140.384" filterUnits="userSpaceOnUse" color-interpolation-filters="sRGB">
<feFlood flood-opacity="0" result="BackgroundImageFix"/>
<feBlend mode="normal" in="SourceGraphic" in2="BackgroundImageFix" result="shape"/>
<feColorMatrix in="SourceAlpha" type="matrix" values="0 0 0 0 0 0 0 0 0 0 0 0 0 0 0 0 0 0 127 0" result="hardAlpha"/>
<feOffset dy="3.57288"/>
<feGaussianBlur stdDeviation="1.78644"/>
<feComposite in2="hardAlpha" operator="arithmetic" k2="-1" k3="1"/>
<feColorMatrix type="matrix" values="0 0 0 0 0 0 0 0 0 0 0 0 0 0 0 0 0 0 0.25 0"/>
<feBlend mode="normal" in2="shape" result="effect1_innerShadow_932_1504"/>
</filter>
<radialGradient id="paint0_radial_932_1504" cx="0" cy="0" r="1" gradientUnits="userSpaceOnUse" gradientTransform="translate(176 89) rotate(61.0699) scale(178.814 170.182)">
<stop stop-color="#EFA1FF"/>
<stop offset="1" stop-color="white" stop-opacity="0"/>
</radialGradient>
<radialGradient id="paint1_radial_932_1504" cx="0" cy="0" r="1" gradientUnits="userSpaceOnUse" gradientTransform="translate(37.5 226) rotate(12.557) scale(220.781 210.123)">
<stop stop-color="#96C3FF"/>
<stop offset="1" stop-color="white" stop-opacity="0"/>
</radialGradient>
<linearGradient id="paint2_linear_932_1504" x1="257.978" y1="0.999999" x2="-4.31122" y2="267.007" gradientUnits="userSpaceOnUse">
<stop offset="0.55" stop-color="#CAD1F3" stop-opacity="0.15"/>
<stop offset="0.774038" stop-color="#334FD7" stop-opacity="0.6"/>
<stop offset="1" stop-color="#334FD7" stop-opacity="0.4"/>
</linearGradient>
</defs>
</svg>
