<svg width="59" height="49" viewBox="0 0 59 49" fill="none" xmlns="http://www.w3.org/2000/svg">
<g filter="url(#filter0_d_1134_158)">
<path d="M44.0926 0.6892C49.7396 0.954693 54.1884 5.63638 54.0897 11.293C53.9905 16.9493 49.3812 21.4722 43.7286 21.5405L43.7284 21.5493L28.4301 21.4415L4.77902 12.6602L5 0L44.0927 0.682365L44.0926 0.6892Z" fill="white"/>
<path d="M27.7992 21.2822L52.7215 32.1612L52.5751 40.4949L35.8179 40.2024L35.8346 39.2465C35.9119 34.804 32.3728 31.1399 27.9303 31.0623L27.7732 40.0619L4.31096 39.6524L4.63867 20.8779L27.7992 21.2822Z" fill="white"/>
<path d="M42.7613 7.32512C44.427 7.35424 45.7537 8.72057 45.7251 10.3763C45.6962 12.0324 44.3226 13.3513 42.6566 13.3223C40.9908 13.2929 39.6629 11.9269 39.6918 10.271C39.721 8.6154 41.0957 7.2963 42.7613 7.32512Z" fill="#0D1036"/>
</g>
<defs>
<filter id="filter0_d_1134_158" x="0.310547" y="0" width="57.7812" height="48.4951" filterUnits="userSpaceOnUse" color-interpolation-filters="sRGB">
<feFlood flood-opacity="0" result="BackgroundImageFix"/>
<feColorMatrix in="SourceAlpha" type="matrix" values="0 0 0 0 0 0 0 0 0 0 0 0 0 0 0 0 0 0 127 0" result="hardAlpha"/>
<feOffset dy="4"/>
<feGaussianBlur stdDeviation="2"/>
<feComposite in2="hardAlpha" operator="out"/>
<feColorMatrix type="matrix" values="0 0 0 0 0 0 0 0 0 0 0 0 0 0 0 0 0 0 0.25 0"/>
<feBlend mode="normal" in2="BackgroundImageFix" result="effect1_dropShadow_1134_158"/>
<feBlend mode="normal" in="SourceGraphic" in2="effect1_dropShadow_1134_158" result="shape"/>
</filter>
</defs>
</svg>
