<svg width="73" height="59" viewBox="0 0 73 59" fill="none" xmlns="http://www.w3.org/2000/svg">
<path d="M33.9756 32.4463L69.5664 47.249V56.6729H48.3086V56.5088C48.3086 49.2828 42.4511 43.4224 35.2246 43.4219H33.0498V56.6729H1.91992V32.4463H33.9756ZM57.3877 1.70703L57.7188 1.7168C65.1269 1.9354 71.0492 7.96746 71.0498 15.3594L71.0449 15.7051C70.8628 22.9384 65.0108 28.7868 57.7188 29.002L57.084 29.0205L35.5312 29.2451L1.91992 17.4297V1.70703H57.3877ZM55.9766 8.10352C52.5907 8.10352 49.8272 10.8344 49.8271 14.2256V14.2266C49.8283 17.5103 52.4208 20.1765 55.6611 20.3398L55.9766 20.3477C59.3616 20.3471 62.1247 17.6162 62.126 14.2266V14.2256C62.126 10.9402 59.5318 8.276 56.292 8.1123L55.9766 8.10352Z" stroke="#899DFF" stroke-width="3.41503"/>
</svg>
