<svg width="12" height="12" viewBox="0 0 12 12" fill="none" xmlns="http://www.w3.org/2000/svg">
<path d="M11.4544 0.0784063C11.7277 0.134406 11.9344 0.377073 11.9344 0.666406V5.99974L11.9211 6.12107C11.8935 6.25671 11.8199 6.37865 11.7128 6.46624C11.6056 6.55383 11.4715 6.60167 11.3331 6.60167C11.1947 6.60167 11.0605 6.55383 10.9534 6.46624C10.8462 6.37865 10.7726 6.25671 10.7451 6.12107L10.7331 6.00107V2.11307L2.11574 10.7331L5.99974 10.7344L6.12107 10.7464C6.26571 10.7774 6.39379 10.8607 6.48073 10.9804C6.56768 11.1001 6.60735 11.2476 6.59214 11.3948C6.57693 11.5419 6.50791 11.6782 6.39833 11.7776C6.28874 11.8769 6.14632 11.9323 5.99841 11.9331H0.666406C0.507276 11.9331 0.354664 11.8699 0.242142 11.7573C0.129621 11.6448 0.0664062 11.4922 0.0664062 11.3331V5.99974L0.0797396 5.87974C0.107281 5.7441 0.180867 5.62216 0.288029 5.53457C0.39519 5.44699 0.529337 5.39914 0.66774 5.39914C0.806142 5.39914 0.940289 5.44699 1.04745 5.53457C1.15461 5.62216 1.2282 5.7441 1.25574 5.87974L1.26641 5.99974V9.88507L9.88507 1.26641H5.99974C5.84061 1.26641 5.688 1.20319 5.57548 1.09067C5.46295 0.978148 5.39974 0.825536 5.39974 0.666406C5.39974 0.507276 5.46295 0.354664 5.57548 0.242142C5.688 0.129621 5.84061 0.0664062 5.99974 0.0664062H11.3331L11.4544 0.0784063Z" fill="white"/>
</svg>
