<svg width="30" height="29" viewBox="0 0 30 29" fill="none" xmlns="http://www.w3.org/2000/svg">
<path fill-rule="evenodd" clip-rule="evenodd" d="M9.59471 0.0390629C10.3179 0.0390629 10.904 0.625254 10.904 1.34837L10.904 2.65767L13.5226 2.65767L13.5226 1.34837C13.5226 0.625254 14.1087 0.0390631 14.8319 0.0390631C15.555 0.0390632 16.1412 0.625254 16.1412 1.34837L16.1412 2.65767L18.7597 2.65767L18.7597 1.34837C18.7597 0.625254 19.3459 0.0390633 20.069 0.0390634C20.7922 0.0390634 21.3783 0.625254 21.3783 1.34837L21.3783 2.65767L22.6876 2.65767C24.8569 2.65767 26.6155 4.41625 26.6155 6.58558L26.6155 7.89488L27.9251 7.89488C28.6482 7.89488 29.2344 8.48107 29.2344 9.20419C29.2344 9.92734 28.6482 10.5135 27.9251 10.5135L26.6155 10.5135L26.6155 13.1321L27.9248 13.1321C28.6479 13.1321 29.234 13.7182 29.234 14.4414C29.234 15.1646 28.6479 15.7507 27.9248 15.7507L26.6155 15.7507L26.6155 18.3693L27.9251 18.3693C28.6482 18.3693 29.2344 18.9555 29.2344 19.6786C29.2344 20.4018 28.6482 20.9879 27.9251 20.9879L26.6155 20.9879L26.6155 22.2972C26.6155 24.4666 24.8569 26.2251 22.6876 26.2251L21.3783 26.2251L21.3783 27.5344C21.3783 28.2576 20.7922 28.8437 20.069 28.8437C19.3459 28.8437 18.7597 28.2576 18.7597 27.5344L18.7597 26.2251L16.1412 26.2251L16.1412 27.5344C16.1412 28.2576 15.555 28.8437 14.8319 28.8437C14.1087 28.8437 13.5226 28.2576 13.5226 27.5344L13.5226 26.2251L10.904 26.2251L10.904 27.5344C10.904 28.2576 10.3179 28.8437 9.59471 28.8437C8.87161 28.8437 8.28542 28.2576 8.28542 27.5344L8.28542 26.2251L6.97613 26.2251C4.80683 26.2251 3.04826 24.4666 3.04826 22.2972L3.04827 20.9879L1.73898 20.9879C1.01587 20.9879 0.429687 20.4018 0.429687 19.6786C0.429687 18.9555 1.01587 18.3693 1.73898 18.3693L3.04827 18.3693L3.04827 15.7507L1.7393 15.7507C1.0162 15.7507 0.430011 15.1646 0.430012 14.4414C0.430012 13.7182 1.0162 13.1321 1.7393 13.1321L3.04827 13.1321L3.04827 10.5135L1.73898 10.5135C1.01587 10.5135 0.429687 9.92734 0.429687 9.20419C0.429687 8.48107 1.01587 7.89488 1.73898 7.89488L3.04827 7.89488L3.04827 6.58558C3.04827 4.41625 4.80683 2.65767 6.97613 2.65767L8.28542 2.65767L8.28542 1.34837C8.28542 0.625254 8.87161 0.0390629 9.59471 0.0390629ZM5.66684 22.2972C5.66684 23.0204 6.25303 23.6065 6.97613 23.6065L22.6876 23.6065C23.4107 23.6065 23.9969 23.0204 23.9969 22.2972L23.9969 6.58558C23.9969 5.86247 23.4107 5.27628 22.6876 5.27628L6.97613 5.27628C6.25303 5.27628 5.66684 5.86247 5.66684 6.58558L5.66684 22.2972ZM10.4766 18.3693L8.28542 18.3693L11.1316 10.5135L13.8459 10.5135L16.6921 18.3693L14.5008 18.3693L13.9447 16.7199L11.0316 16.7199L10.4766 18.3693ZM12.5197 12.4927L13.4585 15.2776L11.5169 15.2776L12.4538 12.4927L12.5197 12.4927ZM18.0302 10.5135L20.069 10.5135L20.069 18.3693L18.0302 18.3693L18.0302 10.5135Z" fill="#CAD1F3"/>
</svg>
