<svg width="52" height="46" viewBox="0 0 52 46" fill="none" xmlns="http://www.w3.org/2000/svg">
<path d="M2.59961 0.0996094H21.835L27.0059 5.18262L27.0352 5.21094H49.4004C50.0637 5.21104 50.6995 5.47028 51.168 5.93066C51.6365 6.39133 51.9004 7.0163 51.9004 7.66699V43.4443C51.9004 44.095 51.6365 44.7191 51.168 45.1797C50.6994 45.6402 50.0638 45.9003 49.4004 45.9004H2.59961C1.93616 45.9003 1.30067 45.6402 0.832031 45.1797C0.363412 44.7191 0.0996094 44.095 0.0996094 43.4443V2.55566C0.0996094 1.90496 0.36339 1.27999 0.832031 0.819336C1.30062 0.359017 1.93636 0.099711 2.59961 0.0996094ZM5.09961 40.9893H46.9004V10.1221H24.9639L19.7939 5.04004L19.7646 5.01074H5.09961V40.9893ZM38.9004 23.0996V35.6777H33.9004V23.0996H38.9004ZM28.5 15.4336V35.6777H23.5V15.4336H28.5ZM18.0996 28.2109V35.6777H13.0996V28.2109H18.0996Z" fill="#CAD1F3" stroke="#CAD1F3" stroke-width="0.2"/>
</svg>
