<svg width="54" height="54" viewBox="0 0 54 54" fill="none" xmlns="http://www.w3.org/2000/svg">
<mask id="mask0_478_924" style="mask-type:luminance" maskUnits="userSpaceOnUse" x="0" y="0" width="54" height="54">
<path d="M53.5 53.5V0.5H0.5V53.5H53.5Z" fill="white" stroke="white"/>
</mask>
<g mask="url(#mask0_478_924)">
<path d="M53.6232 53.625V9.249L26.9982 0.395851L0.373047 9.249V53.625H53.6232ZM2.78697 10.9906L26.998 2.93995L51.2092 10.9906V51.2111H2.78697V10.9906Z" fill="#CAD1F3" stroke="#CAD1F3" stroke-miterlimit="10"/>
<path d="M52.4163 17.6602V15.2462H1.58008V17.6602H52.4163Z" fill="#CAD1F3" stroke="#CAD1F3" stroke-miterlimit="10"/>
<path d="M12.287 52.418V16.453H9.87305V52.418H12.287Z" fill="#CAD1F3" stroke="#CAD1F3" stroke-miterlimit="10"/>
<path d="M44.1229 52.418V16.453H41.709V52.418H44.1229Z" fill="#CAD1F3" stroke="#CAD1F3" stroke-miterlimit="10"/>
</g>
<path d="M24.2494 43.5283C25.8944 43.5283 27.246 43.1747 28.3601 42.3466C29.4566 41.5315 30.2128 40.3374 30.8339 38.8751C31.4536 37.4161 31.9779 35.5927 32.5525 33.4365C33.1327 31.2595 33.7695 28.7214 34.6231 25.7456L32.7288 25.2066C31.8685 28.2057 31.2199 30.7889 30.6484 32.9331C30.0715 35.0979 29.5782 36.7955 29.0196 38.1106C28.4624 39.4223 27.8796 40.2554 27.1818 40.774C26.5017 41.2796 25.6037 41.5661 24.2494 41.5661C22.4614 41.5661 21.2716 40.7979 20.4798 39.5292C19.6512 38.2017 19.2357 36.2751 19.2357 34.0117H17.2656C17.2656 36.4622 17.7071 38.8034 18.8067 40.5652C19.943 42.3858 21.7525 43.5283 24.2494 43.5283Z" fill="#CAD1F3" stroke="#CAD1F3" stroke-miterlimit="10"/>
<path d="M34.5634 40.8003C34.5634 41.2089 34.2322 41.5401 33.8237 41.5401C33.643 41.5401 33.5016 41.4745 33.3781 41.3456C33.2426 41.204 33.1212 40.9724 33.0712 40.6701V40.6701C32.6488 38.1177 32.3142 35.772 31.9798 33.836C31.6416 31.8779 31.2786 30.1755 30.7578 28.7836C30.2343 27.3843 29.5215 26.2157 28.4319 25.4104C27.3338 24.5988 25.9704 24.2423 24.314 24.2423C21.794 24.2423 19.9678 25.4 18.8209 27.2447C17.7112 29.0299 17.2656 31.4022 17.2656 33.8853H19.2539C19.2539 31.5917 19.6733 29.6396 20.5095 28.2944C21.3087 27.0089 22.5095 26.2305 24.314 26.2305C25.6847 26.2305 26.5916 26.5226 27.2501 27.0093C27.917 27.5022 28.447 28.2813 28.8956 29.4803C29.3469 30.6865 29.6852 32.2327 30.0205 34.1744C30.3597 36.1383 30.6709 38.3437 31.1097 40.9947C31.3124 42.2198 32.2226 43.5283 33.8237 43.5283C35.3303 43.5283 36.5517 42.3069 36.5517 40.8003V39.0747H34.5634V40.8003Z" fill="#CAD1F3" stroke="#CAD1F3" stroke-miterlimit="10"/>
</svg>
