<svg width="22" height="25" viewBox="0 0 22 25" fill="none" xmlns="http://www.w3.org/2000/svg">
<path d="M14.5998 13.7367C16.4857 12.47 17.7328 10.2937 17.7328 7.82612C17.7328 3.92435 14.6155 0.750001 10.7837 0.75C6.95088 0.75 3.83259 3.92434 3.83259 7.82611C3.83259 10.3652 5.1534 12.5959 7.13208 13.8446C3.21981 15.4211 0.445312 19.3121 0.445311 23.8507L0.445311 24.7532L2.21786 24.7532L2.21786 23.8507C2.21786 18.9153 6.16007 14.9001 11.0057 14.9001C15.8524 14.9001 19.7955 18.9153 19.7955 23.8507L19.7955 24.7532L21.5681 24.7532L21.5681 23.8507C21.5681 19.2045 18.6599 15.2374 14.5998 13.7367ZM5.60513 7.82612C5.60513 4.91959 7.92825 2.55496 10.7837 2.55496C13.6381 2.55496 15.9603 4.91959 15.9603 7.82612C15.9603 10.7327 13.6381 13.0973 10.7837 13.0973C7.92825 13.0973 5.60513 10.7327 5.60513 7.82612Z" fill="#CAD1F3" stroke="#CAD1F3" stroke-width="0.480063"/>
</svg>
